<svg id="svg" version="1.1" xmlns="http://www.w3.org/2000/svg" xmlns:xlink="http://www.w3.org/1999/xlink" width="400" height="400" viewBox="0, 0, 400,400"><g id="svgg"><path id="path0" d="M6.782 9.013 C 6.027 9.571,5.176 10.471,4.891 11.013 C 4.607 11.556,4.200 12.000,3.987 12.000 C 3.738 12.000,3.600 78.224,3.600 197.625 L 3.600 383.250 4.452 383.125 C 5.388 382.988,5.688 383.403,6.399 385.819 C 6.979 387.792,8.100 388.380,11.425 388.452 C 15.441 388.540,16.581 390.062,12.908 390.433 C 11.638 390.561,74.905 390.696,153.500 390.733 C 293.766 390.799,296.386 390.786,295.642 390.042 C 295.225 389.625,294.387 389.040,293.779 388.742 C 292.673 388.199,292.549 388.036,291.564 385.800 C 290.721 383.889,289.961 383.200,288.695 383.200 C 287.811 383.200,287.096 382.751,285.857 381.417 C 284.945 380.436,283.696 379.447,283.081 379.220 C 282.393 378.965,281.743 378.283,281.396 377.451 C 280.825 376.086,280.145 375.600,278.804 375.600 C 278.331 375.600,277.270 374.391,275.792 372.171 C 274.537 370.285,273.112 368.560,272.624 368.338 C 272.136 368.116,271.507 367.298,271.226 366.521 C 270.945 365.744,270.104 364.432,269.358 363.606 C 268.611 362.780,267.883 361.496,267.739 360.752 C 267.595 360.008,266.965 358.809,266.339 358.086 C 265.712 357.363,265.200 356.596,265.200 356.382 C 265.200 355.796,263.546 352.341,262.715 351.193 C 262.262 350.567,261.895 349.131,261.744 347.393 C 261.551 345.175,261.306 344.412,260.555 343.688 C 260.035 343.187,259.533 342.377,259.440 341.888 C 257.403 331.219,256.825 323.712,257.309 314.200 C 257.499 310.460,257.563 306.050,257.450 304.400 C 257.235 301.262,257.795 298.641,258.700 298.550 C 258.975 298.522,259.380 298.478,259.600 298.450 C 259.820 298.423,260.000 298.062,260.000 297.649 C 260.000 297.236,260.241 296.698,260.535 296.454 C 260.829 296.210,261.295 294.752,261.570 293.215 C 261.844 291.678,262.387 290.011,262.775 289.510 C 263.438 288.655,263.732 287.787,264.274 285.073 C 264.398 284.452,264.837 283.734,265.249 283.476 C 265.785 283.142,266.000 282.538,266.000 281.366 C 266.000 280.239,266.248 279.500,266.790 279.009 C 267.224 278.616,267.682 277.970,267.808 277.574 C 267.934 277.178,268.782 276.606,269.694 276.302 C 271.287 275.771,271.389 275.633,272.312 272.775 C 273.389 269.441,273.789 268.800,274.792 268.800 C 275.188 268.800,276.100 267.876,276.914 266.651 C 277.879 265.197,278.706 264.410,279.470 264.220 C 280.898 263.863,282.000 262.884,282.000 261.971 C 282.000 260.573,282.525 259.968,284.462 259.135 C 285.546 258.669,286.612 257.952,286.831 257.542 C 287.272 256.719,291.563 254.407,292.689 254.387 C 293.534 254.372,294.800 253.481,294.800 252.902 C 294.800 252.676,295.258 252.192,295.818 251.825 C 296.378 251.458,296.994 250.742,297.187 250.234 C 297.441 249.567,298.073 249.176,299.464 248.826 C 300.523 248.559,301.499 248.164,301.632 247.948 C 301.765 247.733,303.065 247.307,304.520 247.002 C 305.976 246.698,307.669 246.084,308.283 245.638 C 309.707 244.605,312.299 244.025,315.600 244.000 C 318.817 243.976,321.592 243.364,322.189 242.547 C 323.465 240.802,341.949 240.493,342.904 242.200 C 343.092 242.536,343.804 242.803,344.520 242.806 C 345.224 242.809,346.520 243.071,347.400 243.388 C 348.280 243.705,350.080 243.973,351.400 243.982 C 356.302 244.017,360.486 244.840,361.991 246.067 C 362.756 246.690,363.818 247.200,364.350 247.200 C 365.455 247.200,369.389 249.674,369.741 250.591 C 369.896 250.995,370.509 251.200,371.561 251.200 C 373.715 251.200,374.913 251.716,375.559 252.924 C 375.857 253.481,377.050 254.590,378.209 255.389 C 379.369 256.187,380.413 257.206,380.530 257.653 C 380.701 258.309,381.015 258.443,382.151 258.345 C 383.613 258.219,385.600 259.548,385.600 260.650 C 385.600 260.932,386.243 261.786,387.028 262.549 C 387.814 263.312,388.957 264.956,389.568 266.202 L 390.680 268.469 392.749 268.612 L 394.818 268.755 394.709 261.478 C 394.632 256.360,394.467 254.225,394.150 254.283 C 393.903 254.329,393.600 253.616,393.477 252.700 C 393.252 251.020,393.563 249.898,394.236 249.964 C 394.446 249.985,394.645 244.501,394.705 237.000 C 394.798 225.613,394.736 224.000,394.205 224.000 C 393.200 224.000,393.084 18.740,394.089 17.800 C 394.386 17.523,394.419 17.572,394.197 17.962 C 393.982 18.338,394.029 18.429,394.338 18.238 C 394.993 17.834,394.955 15.465,394.300 15.835 C 393.900 16.061,393.900 16.010,394.300 15.579 C 394.575 15.282,394.800 14.896,394.800 14.720 C 394.800 14.544,394.575 14.445,394.300 14.500 C 394.006 14.559,393.755 14.105,393.690 13.400 C 393.469 10.981,393.195 10.316,392.527 10.573 C 391.993 10.777,391.971 10.717,392.392 10.209 C 392.807 9.709,392.789 9.600,392.293 9.600 C 391.961 9.600,391.714 9.285,391.744 8.900 C 391.797 8.234,382.385 8.195,199.978 8.100 L 8.157 7.999 6.782 9.013 M382.129 14.100 C 384.243 15.650,383.118 23.446,380.666 24.238 C 380.262 24.369,379.748 25.004,379.523 25.650 C 379.297 26.296,378.609 27.085,377.993 27.403 C 377.160 27.835,376.806 28.382,376.610 29.543 C 376.456 30.452,375.941 31.455,375.373 31.949 C 374.838 32.414,374.400 33.062,374.400 33.388 C 374.400 33.715,373.950 34.276,373.400 34.637 C 372.850 34.997,372.400 35.575,372.400 35.920 C 372.400 36.266,372.048 36.923,371.618 37.381 C 370.912 38.132,369.809 39.998,368.060 43.400 C 366.873 45.707,365.328 47.200,364.125 47.200 C 363.616 47.200,363.196 47.335,363.191 47.500 C 363.187 47.665,363.113 52.930,363.029 59.200 C 362.944 65.470,362.750 70.994,362.597 71.475 C 361.745 74.162,352.814 73.500,352.803 70.749 C 352.801 70.391,352.530 69.874,352.200 69.600 C 351.870 69.326,351.600 68.606,351.600 68.000 C 351.600 67.394,351.870 66.674,352.200 66.400 C 352.700 65.985,352.800 64.438,352.800 57.119 L 352.800 48.337 351.058 46.595 C 350.100 45.637,349.015 44.219,348.648 43.444 C 348.280 42.668,347.804 41.926,347.591 41.794 C 347.377 41.662,346.831 40.690,346.377 39.634 C 345.891 38.505,344.819 37.090,343.775 36.201 C 342.799 35.368,342.000 34.426,342.000 34.105 C 342.000 33.158,340.736 31.301,339.721 30.758 C 339.203 30.480,338.666 29.791,338.530 29.227 C 338.393 28.662,338.037 27.845,337.740 27.411 C 337.443 26.977,337.200 26.306,337.200 25.920 C 337.200 25.534,336.712 24.899,336.115 24.509 C 332.679 22.263,331.384 19.016,333.200 17.200 C 333.640 16.760,334.000 16.141,334.000 15.824 C 334.000 14.971,334.476 14.797,337.861 14.418 C 341.558 14.003,342.694 14.335,342.871 15.879 C 342.981 16.833,343.247 17.055,344.657 17.368 C 346.837 17.852,348.800 20.832,348.800 23.660 C 348.800 25.216,348.976 25.615,350.012 26.409 C 350.678 26.920,351.576 28.134,352.006 29.107 C 352.436 30.080,353.241 31.232,353.794 31.667 C 354.347 32.102,354.800 32.678,354.800 32.948 C 354.800 34.133,357.876 36.491,359.078 36.227 C 360.592 35.894,362.400 34.198,362.400 33.110 C 362.400 32.638,362.743 31.880,363.162 31.426 C 363.581 30.972,364.604 29.340,365.435 27.800 C 366.845 25.188,368.027 23.440,369.359 22.000 C 369.664 21.670,370.210 20.687,370.572 19.815 C 371.362 17.912,372.306 16.800,373.130 16.800 C 373.464 16.800,374.081 16.485,374.501 16.100 C 376.148 14.591,381.046 13.306,382.129 14.100 M49.327 14.352 C 54.036 14.680,53.365 14.366,57.028 17.963 C 57.783 18.705,58.423 18.920,59.804 18.899 L 61.599 18.872 62.414 21.736 C 62.862 23.311,63.361 25.050,63.523 25.600 C 63.745 26.356,64.157 26.649,65.209 26.800 C 67.213 27.088,67.286 28.502,65.421 30.945 C 64.639 31.969,64.000 33.060,64.000 33.370 C 64.000 34.247,60.936 36.530,60.674 35.848 C 60.557 35.545,59.664 35.024,58.688 34.692 C 56.448 33.929,53.765 31.205,53.415 29.339 C 53.227 28.338,52.865 27.853,52.083 27.555 C 51.492 27.331,50.427 26.513,49.717 25.737 L 48.426 24.328 41.713 24.596 C 33.946 24.907,33.920 24.912,33.396 26.068 C 33.178 26.550,32.375 27.151,31.610 27.404 C 30.295 27.840,30.227 27.952,30.338 29.492 C 30.402 30.386,30.263 31.238,30.028 31.383 C 29.792 31.528,29.597 31.952,29.594 32.324 C 29.591 32.696,29.330 33.450,29.015 34.000 C 26.811 37.845,26.599 38.554,26.659 41.887 C 26.704 44.376,26.881 45.338,27.390 45.847 C 27.962 46.419,28.020 47.020,27.781 49.892 C 27.485 53.439,27.731 54.448,29.337 56.285 C 30.227 57.302,30.980 58.527,31.684 60.101 C 32.233 61.330,32.346 61.379,36.000 62.000 C 37.430 62.244,39.360 62.726,40.290 63.072 C 43.168 64.143,51.600 62.143,51.600 60.388 C 51.600 60.183,52.302 59.658,53.160 59.220 C 54.434 58.571,54.713 58.220,54.680 57.312 C 54.529 53.118,55.344 51.600,57.746 51.600 C 58.486 51.600,59.550 51.240,60.109 50.800 C 61.358 49.817,61.740 49.807,63.116 50.716 C 63.712 51.110,64.560 51.623,65.000 51.856 C 65.565 52.156,65.965 53.062,66.362 54.948 C 67.199 58.924,66.197 61.581,62.565 65.008 C 61.628 65.893,60.740 67.101,60.591 67.694 C 60.298 68.859,59.982 69.016,57.100 69.423 C 55.511 69.647,55.200 69.831,55.199 70.545 C 55.193 74.237,41.309 74.939,28.639 71.889 C 26.687 71.420,23.200 67.277,23.200 65.427 C 23.200 65.116,22.321 64.083,21.247 63.131 C 20.172 62.179,19.162 60.950,19.002 60.400 C 18.843 59.850,18.199 58.859,17.573 58.199 C 15.543 56.057,14.375 48.431,15.754 46.326 C 16.317 45.467,16.365 44.916,16.046 42.950 C 15.559 39.936,15.819 35.669,16.542 34.842 C 16.850 34.489,17.201 33.660,17.322 33.000 C 17.984 29.383,18.580 27.706,19.543 26.751 C 21.591 24.717,22.400 23.681,22.400 23.092 C 22.400 22.356,25.343 19.935,27.100 19.227 C 27.815 18.939,28.400 18.548,28.400 18.360 C 28.400 18.171,29.129 17.644,30.019 17.190 C 30.910 16.736,31.736 16.111,31.854 15.803 C 32.054 15.283,34.556 14.586,37.400 14.258 C 39.598 14.005,44.949 14.047,49.327 14.352 M114.167 14.739 C 114.809 14.901,115.529 15.370,115.767 15.782 C 116.005 16.193,116.518 16.863,116.906 17.271 C 118.357 18.794,116.780 23.656,114.600 24.378 C 113.645 24.695,99.487 24.899,88.604 24.753 C 85.655 24.714,84.555 26.652,84.636 31.747 C 84.731 37.712,85.713 39.561,87.764 37.634 C 88.783 36.676,90.095 36.551,90.757 37.348 C 91.490 38.232,94.317 38.427,95.843 37.699 C 97.091 37.104,97.237 37.109,97.977 37.779 C 98.463 38.219,99.127 38.419,99.686 38.293 C 111.091 35.725,114.329 36.734,114.727 42.983 C 114.971 46.827,112.057 48.097,103.400 47.920 C 100.865 47.868,99.376 48.032,98.366 48.475 C 97.091 49.034,96.782 49.038,95.566 48.513 C 94.717 48.147,92.559 47.880,89.860 47.808 L 85.520 47.692 84.795 49.312 C 84.304 50.408,84.177 51.214,84.402 51.806 C 84.786 52.815,84.645 60.071,84.210 61.694 C 83.818 63.155,85.195 63.694,88.544 63.390 C 96.734 62.645,111.373 62.887,114.400 63.817 C 116.050 64.324,117.908 64.850,118.529 64.985 C 119.876 65.277,119.773 66.481,118.136 69.559 C 116.040 73.500,114.383 74.382,110.517 73.614 C 108.807 73.274,106.526 73.180,103.858 73.341 C 92.983 73.997,77.751 73.794,76.592 72.978 C 75.985 72.550,75.198 72.020,74.844 71.800 C 74.490 71.580,74.081 71.220,73.935 71.000 C 73.789 70.780,73.294 70.167,72.835 69.639 C 71.875 68.533,71.749 67.106,72.554 66.438 C 73.054 66.023,73.750 53.633,73.591 48.000 C 72.859 22.168,73.363 15.024,75.958 14.409 C 77.289 14.094,112.824 14.401,114.167 14.739 M168.853 14.408 C 170.286 14.806,170.311 14.848,170.769 17.706 C 171.361 21.400,172.116 53.313,171.777 60.288 C 171.555 64.833,171.609 65.667,172.160 66.217 C 174.690 68.747,170.513 73.226,165.677 73.168 C 160.845 73.110,159.719 72.585,158.208 69.686 C 157.488 68.303,156.619 66.863,156.278 66.486 C 155.936 66.109,155.298 64.961,154.859 63.937 C 154.419 62.912,153.800 61.922,153.483 61.737 C 153.166 61.551,152.310 60.140,151.580 58.600 C 150.851 57.060,149.837 55.291,149.327 54.669 C 148.817 54.047,148.400 53.316,148.400 53.043 C 148.400 52.771,147.773 52.249,147.006 51.884 C 145.850 51.332,145.568 50.943,145.353 49.599 C 145.169 48.445,144.763 47.743,143.941 47.158 C 142.687 46.265,141.600 44.474,141.600 43.300 C 141.600 42.820,141.115 42.385,140.214 42.059 C 139.022 41.629,138.731 41.253,138.141 39.379 C 137.763 38.181,137.298 37.200,137.108 37.200 C 136.918 37.200,136.330 36.734,135.801 36.164 C 135.273 35.594,134.652 35.244,134.421 35.387 C 133.908 35.704,133.854 41.462,134.360 41.775 C 135.238 42.318,135.683 45.879,135.031 47.141 C 133.981 49.171,134.103 65.413,135.172 65.985 C 136.260 66.567,136.368 67.938,135.470 69.782 C 133.442 73.949,127.706 75.588,125.459 72.642 C 124.004 70.734,123.990 70.529,123.773 47.600 C 123.665 36.270,123.551 26.370,123.519 25.600 C 123.414 23.107,124.080 18.224,124.647 17.314 C 124.951 16.827,125.200 16.070,125.200 15.632 C 125.200 14.590,126.883 14.272,131.408 14.458 C 135.157 14.613,135.053 14.551,137.388 18.000 C 137.909 18.770,138.980 20.108,139.768 20.973 C 140.914 22.231,141.201 22.870,141.206 24.173 C 141.213 26.088,141.483 26.593,142.704 26.974 C 143.568 27.244,144.800 29.039,144.800 30.027 C 144.800 30.485,146.288 32.413,148.173 34.400 C 149.035 35.308,149.633 36.297,151.673 40.189 C 152.044 40.895,152.809 41.776,153.373 42.146 C 153.938 42.516,154.402 43.039,154.404 43.309 C 154.406 43.579,155.036 44.590,155.804 45.556 C 156.572 46.522,157.200 47.625,157.200 48.007 C 157.200 48.389,157.452 48.911,157.761 49.167 C 158.069 49.423,158.436 50.087,158.575 50.642 C 158.764 51.397,159.050 51.620,159.703 51.526 C 160.967 51.344,161.391 48.731,160.892 44.200 C 160.668 42.168,160.636 39.642,160.818 38.400 C 161.349 34.787,161.243 32.503,160.439 30.214 C 159.786 28.356,159.755 27.944,160.226 27.324 C 160.561 26.882,160.786 25.511,160.805 23.800 C 160.847 19.860,161.345 17.654,162.351 16.949 C 162.818 16.622,163.200 16.086,163.200 15.758 C 163.200 14.462,166.343 13.711,168.853 14.408 M272.069 14.662 C 272.471 15.026,272.800 15.599,272.800 15.936 C 272.800 16.273,273.205 16.979,273.700 17.506 C 274.971 18.858,275.493 47.257,274.306 50.487 C 273.925 51.525,273.459 54.359,273.270 56.785 C 273.023 59.963,272.742 61.401,272.264 61.930 C 271.899 62.333,271.587 62.919,271.571 63.231 C 271.522 64.179,270.201 66.177,269.376 66.553 C 268.949 66.748,267.989 67.955,267.243 69.235 C 265.582 72.086,264.410 72.588,257.400 73.451 C 251.765 74.145,243.161 73.876,241.714 72.960 C 241.227 72.652,240.348 72.400,239.760 72.400 C 237.854 72.400,235.675 71.515,234.450 70.244 C 233.049 68.790,230.400 64.500,230.400 63.685 C 230.400 63.376,230.066 62.646,229.658 62.062 C 227.521 59.005,226.859 52.344,227.187 37.201 C 227.337 30.271,227.306 23.791,227.117 22.801 C 226.605 20.106,227.065 18.124,228.438 17.109 C 229.077 16.636,229.600 16.009,229.600 15.715 C 229.600 14.979,231.297 14.400,233.452 14.400 C 235.632 14.400,236.955 15.018,236.624 15.881 C 236.491 16.227,236.678 16.715,237.046 16.984 C 238.116 17.767,238.326 20.771,238.110 32.200 C 237.799 48.672,238.628 58.038,240.449 58.616 C 240.902 58.759,241.528 59.487,241.839 60.232 C 242.186 61.063,242.751 61.657,243.302 61.769 C 243.796 61.869,244.650 62.038,245.200 62.143 C 245.750 62.248,246.994 62.628,247.966 62.988 C 249.968 63.729,253.190 63.512,255.588 62.475 C 256.364 62.139,257.714 61.759,258.587 61.632 C 260.056 61.417,260.231 61.251,260.940 59.400 C 261.361 58.300,262.082 56.680,262.542 55.800 C 263.348 54.258,263.374 53.735,263.256 41.383 C 263.146 29.823,263.202 28.422,263.837 27.092 C 264.513 25.674,264.511 25.586,263.792 24.792 C 261.526 22.287,261.653 18.397,264.041 17.179 C 265.021 16.679,265.497 16.196,265.360 15.840 C 264.742 14.228,270.476 13.221,272.069 14.662 M303.260 14.560 L 315.521 14.600 316.541 15.700 C 317.491 16.723,317.785 16.800,320.761 16.800 C 324.185 16.800,325.345 17.550,326.182 20.304 C 326.333 20.802,326.939 21.461,327.528 21.769 C 331.136 23.654,332.625 33.415,330.065 38.400 C 327.880 42.656,326.500 43.965,323.468 44.657 C 321.440 45.119,320.901 45.394,320.987 45.924 C 321.047 46.296,320.925 46.930,320.716 47.333 C 320.451 47.844,320.504 48.269,320.891 48.733 C 321.196 49.100,321.658 49.899,321.918 50.508 C 322.178 51.117,322.821 51.780,323.348 51.980 C 324.796 52.531,326.800 55.810,326.800 57.629 C 326.800 58.109,327.201 58.572,327.821 58.808 C 329.807 59.563,331.200 61.577,331.200 63.692 C 331.200 65.553,331.245 65.624,332.804 66.248 C 334.895 67.085,335.625 69.600,333.776 69.600 C 333.459 69.600,333.200 69.920,333.200 70.311 C 333.200 73.114,329.293 74.314,324.800 72.892 C 321.816 71.947,321.600 71.762,321.600 70.162 C 321.600 68.357,320.572 66.800,319.381 66.800 C 318.278 66.800,316.800 64.919,316.800 63.515 C 316.800 62.986,316.536 62.204,316.213 61.776 C 315.890 61.349,315.620 60.755,315.613 60.456 C 315.589 59.449,308.919 52.000,308.042 52.000 C 307.859 52.000,307.255 51.546,306.700 50.991 C 305.894 50.185,305.399 50.017,304.250 50.160 C 302.648 50.358,301.990 49.848,303.089 49.260 C 303.480 49.050,303.935 48.861,304.100 48.839 C 305.201 48.695,304.046 48.152,302.112 47.905 C 298.462 47.439,293.666 47.929,293.191 48.816 C 292.625 49.875,292.678 66.118,293.250 66.690 C 294.119 67.559,293.274 71.587,291.944 72.917 C 289.897 74.965,284.000 73.232,284.000 70.584 C 284.000 70.331,283.673 69.828,283.273 69.466 C 282.663 68.914,282.526 68.045,282.426 64.104 C 282.299 59.114,282.301 58.959,282.569 51.200 C 282.663 48.450,282.735 45.840,282.728 45.400 C 282.721 44.960,282.743 43.206,282.777 41.503 C 282.811 39.799,282.657 37.744,282.433 36.936 C 282.038 35.502,282.789 31.901,283.587 31.408 C 283.747 31.309,283.415 29.886,282.849 28.245 C 281.864 25.392,281.850 25.229,282.521 24.487 C 283.084 23.865,283.141 23.498,282.811 22.630 C 281.914 20.269,282.284 18.282,283.805 17.296 C 284.609 16.776,285.200 16.064,285.200 15.616 C 285.200 14.384,286.355 13.945,288.800 14.248 C 290.010 14.398,296.517 14.538,303.260 14.560 M221.462 14.896 C 222.095 15.910,222.049 23.861,221.408 24.393 C 220.995 24.736,219.215 24.860,215.509 24.804 C 207.396 24.683,207.952 24.591,206.519 26.282 L 205.239 27.792 205.021 37.396 C 204.902 42.678,204.704 51.158,204.581 56.241 L 204.359 65.481 205.380 66.150 C 206.910 67.153,206.280 71.212,204.487 71.898 C 204.109 72.043,203.190 72.575,202.444 73.081 C 198.873 75.502,190.175 69.077,193.400 66.400 C 193.918 65.970,194.000 63.303,194.000 46.904 L 194.000 27.906 192.457 26.409 L 190.915 24.912 184.757 24.714 C 181.371 24.605,178.069 24.667,177.420 24.853 C 175.833 25.307,175.619 24.841,175.850 21.424 C 176.069 18.174,176.709 15.590,177.449 14.970 C 178.248 14.300,221.046 14.228,221.462 14.896 M296.868 24.701 C 295.804 24.824,295.425 25.122,294.983 26.179 C 294.679 26.907,294.153 27.609,293.815 27.739 C 292.737 28.152,293.008 30.982,294.200 31.763 C 295.431 32.570,295.486 33.754,294.331 34.563 C 293.853 34.898,293.431 35.583,293.392 36.086 C 293.353 36.589,293.194 37.292,293.038 37.649 C 292.554 38.754,306.081 39.424,311.958 38.585 C 313.996 38.294,317.767 34.771,318.213 32.741 C 318.350 32.116,318.763 31.429,319.131 31.215 C 319.499 31.000,319.589 30.819,319.331 30.812 C 319.073 30.805,318.650 30.159,318.392 29.375 C 318.064 28.383,317.508 27.752,316.561 27.301 C 315.812 26.944,315.200 26.437,315.200 26.175 C 315.200 25.913,314.975 25.520,314.700 25.303 C 314.201 24.909,299.389 24.409,296.868 24.701 M321.622 272.643 C 320.940 273.216,318.362 274.374,315.891 275.215 C 311.868 276.584,311.150 276.979,309.000 279.011 C 306.529 281.346,305.403 282.000,303.854 282.000 C 303.196 282.000,302.827 282.369,302.454 283.400 C 302.069 284.465,301.721 284.800,300.998 284.800 C 299.835 284.800,299.530 285.252,299.386 287.187 C 299.295 288.411,298.881 289.056,297.115 290.726 C 295.008 292.720,293.600 295.569,293.600 297.842 C 293.600 298.267,293.110 299.331,292.511 300.207 C 291.913 301.083,291.090 302.430,290.684 303.200 C 289.400 305.633,287.627 320.990,288.358 323.350 C 288.571 324.038,288.868 325.950,289.019 327.600 C 289.179 329.350,289.940 332.549,290.846 335.277 C 291.701 337.850,292.400 340.330,292.400 340.790 C 292.400 341.901,296.365 347.935,297.287 348.228 C 297.687 348.355,298.256 349.030,298.552 349.729 C 299.228 351.326,302.610 355.441,303.789 356.103 C 306.608 357.684,307.971 359.039,308.290 360.579 L 308.617 362.158 311.609 362.704 C 313.796 363.103,314.815 363.499,315.400 364.175 C 315.840 364.684,317.100 365.337,318.200 365.627 C 319.300 365.916,320.790 366.499,321.510 366.922 C 323.706 368.211,340.988 368.476,342.651 367.247 C 343.298 366.769,344.540 366.282,345.413 366.164 C 351.756 365.310,352.427 365.131,353.098 364.107 C 353.464 363.548,354.402 362.827,355.182 362.504 C 355.962 362.181,357.166 361.304,357.857 360.555 C 358.651 359.695,359.343 359.280,359.733 359.430 C 360.134 359.584,361.126 358.919,362.562 357.533 C 363.778 356.360,365.964 354.423,367.418 353.229 C 369.096 351.851,370.360 350.426,370.875 349.329 C 371.322 348.378,371.848 347.600,372.044 347.600 C 372.240 347.600,372.400 347.334,372.400 347.008 C 372.400 346.683,373.107 346.056,373.971 345.615 C 374.835 345.174,375.645 344.487,375.772 344.088 C 376.297 342.433,380.797 338.398,382.678 337.895 C 384.115 337.510,384.724 337.071,385.481 335.871 C 386.519 334.228,388.405 333.200,390.384 333.200 C 391.224 333.200,391.921 332.833,392.663 332.000 C 393.251 331.340,393.972 330.800,394.266 330.800 C 394.632 330.800,394.800 330.234,394.800 329.000 C 394.800 327.655,394.646 327.200,394.191 327.200 C 393.100 327.200,392.589 325.367,393.124 323.368 C 393.386 322.389,393.600 320.691,393.600 319.594 C 393.600 318.212,393.753 317.631,394.100 317.700 C 394.455 317.771,394.634 316.957,394.718 314.894 C 394.798 312.918,394.693 312.022,394.392 312.094 C 394.148 312.152,393.626 311.366,393.231 310.348 C 392.314 307.982,390.432 305.502,389.751 305.764 C 389.462 305.874,389.133 305.816,389.020 305.633 C 388.907 305.450,387.867 304.849,386.708 304.297 C 385.548 303.745,383.783 302.571,382.785 301.688 C 381.787 300.805,380.302 299.803,379.485 299.461 C 378.618 299.099,378.000 298.565,378.000 298.177 C 378.000 297.812,376.515 296.016,374.700 294.185 C 370.302 289.749,369.852 289.290,367.887 287.239 C 366.959 286.271,365.255 284.579,364.100 283.479 C 362.752 282.196,362.000 281.150,362.000 280.558 C 362.000 279.805,361.725 279.589,360.500 279.379 C 359.675 279.237,358.280 278.632,357.400 278.034 C 354.613 276.140,352.245 274.924,350.807 274.649 C 350.040 274.502,348.739 273.936,347.914 273.391 C 345.794 271.988,342.473 271.617,331.931 271.608 L 322.861 271.600 321.622 272.643 M392.969 370.993 C 392.372 371.547,391.558 372.000,391.161 372.000 C 390.765 372.000,390.296 372.225,390.120 372.501 C 389.944 372.776,389.303 373.258,388.695 373.571 C 388.034 373.912,387.173 374.994,386.551 376.265 C 385.910 377.574,384.998 378.707,384.176 379.215 C 383.441 379.669,382.466 380.646,382.008 381.387 C 381.360 382.435,380.815 382.795,379.553 383.008 C 378.252 383.228,377.852 383.504,377.540 384.399 C 377.168 385.468,374.270 387.539,371.500 388.716 C 370.895 388.973,370.400 389.442,370.400 389.758 C 370.400 390.074,370.175 390.424,369.900 390.535 C 369.625 390.646,372.066 390.751,375.324 390.768 C 379.390 390.790,381.165 390.667,380.986 390.377 C 379.946 388.695,382.374 387.054,385.327 387.443 C 387.989 387.794,390.764 386.327,391.466 384.200 C 391.797 383.195,392.101 382.980,393.331 382.876 L 394.800 382.752 394.800 380.796 C 394.800 379.579,394.596 378.719,394.260 378.520 C 393.264 377.929,393.097 376.083,393.996 375.602 C 394.662 375.246,394.800 374.766,394.800 372.810 C 394.800 370.009,394.429 369.641,392.969 370.993 M389.531 382.203 C 389.412 382.322,389.004 382.300,388.624 382.154 C 388.081 381.945,388.046 381.818,388.463 381.561 C 388.995 381.232,389.936 381.798,389.531 382.203 M5.513 388.221 C 5.224 388.509,6.892 390.196,7.817 390.551 C 8.371 390.764,8.421 390.707,8.060 390.272 C 7.811 389.972,7.695 389.608,7.803 389.463 C 7.912 389.318,7.878 389.292,7.730 389.404 C 7.581 389.516,7.073 389.244,6.600 388.800 C 6.127 388.356,5.638 388.095,5.513 388.221 " stroke="none" fill="#eb2324" fill-rule="evenodd"></path><path id="path1" d="M39.400 16.679 C 37.936 16.874,34.649 17.869,32.940 18.635 C 32.246 18.946,31.469 19.200,31.212 19.200 C 30.366 19.200,27.041 21.699,24.706 24.090 C 15.964 33.041,15.863 52.805,24.504 63.729 C 32.415 73.731,53.889 73.444,60.775 63.244 C 65.400 56.391,65.549 53.600,61.290 53.600 L 59.381 53.600 57.590 57.043 C 55.187 61.665,53.007 63.639,48.000 65.724 C 44.648 67.120,38.541 66.811,35.400 65.087 C 34.740 64.725,33.660 64.161,33.000 63.833 C 29.271 61.983,26.473 57.966,25.121 52.522 C 22.976 43.882,24.555 32.352,28.516 27.740 C 36.346 18.622,51.866 19.426,56.803 29.206 C 58.151 31.875,58.802 32.213,61.363 31.568 C 63.773 30.961,63.818 29.798,61.579 25.964 C 57.704 19.329,48.488 15.471,39.400 16.679 M76.422 18.174 C 75.616 19.145,75.802 68.774,76.614 69.586 C 77.150 70.120,79.607 70.200,95.553 70.200 C 115.922 70.200,115.342 70.276,115.120 67.643 C 114.917 65.239,114.743 65.214,98.200 65.193 C 79.718 65.170,81.800 66.419,81.800 55.354 C 81.800 47.167,81.839 46.720,82.600 46.272 C 83.155 45.945,87.696 45.739,97.400 45.600 L 111.400 45.400 111.520 43.100 C 111.667 40.285,113.782 40.683,97.264 40.423 C 79.816 40.148,81.614 41.221,81.722 31.148 C 81.827 21.408,79.960 22.400,98.182 22.400 C 111.716 22.400,112.720 22.352,113.338 21.669 C 114.110 20.816,114.213 18.773,113.520 18.080 C 112.747 17.307,77.066 17.398,76.422 18.174 M127.600 17.991 C 126.970 18.389,126.426 64.303,127.003 68.300 L 127.249 70.000 129.578 70.000 C 132.608 70.000,132.388 71.602,132.395 49.533 C 132.402 25.441,132.367 25.513,139.072 35.600 C 140.315 37.470,142.787 41.127,144.566 43.726 C 146.345 46.325,148.681 49.835,149.758 51.526 C 150.834 53.217,151.881 54.664,152.083 54.742 C 152.286 54.820,152.602 55.270,152.786 55.742 C 153.106 56.565,160.301 67.171,161.893 69.165 C 162.862 70.380,167.130 70.549,168.376 69.422 C 169.398 68.497,169.422 18.638,168.400 17.992 C 167.725 17.565,165.454 17.489,164.111 17.849 L 163.222 18.088 163.111 37.583 C 162.976 61.343,163.156 60.671,158.562 54.566 C 157.373 52.987,156.400 51.581,156.400 51.443 C 156.400 51.205,155.104 49.297,152.127 45.152 C 151.397 44.136,150.800 43.158,150.800 42.978 C 150.800 42.798,150.462 42.280,150.049 41.826 C 149.636 41.372,147.235 37.940,144.714 34.200 C 138.531 25.030,137.438 23.434,137.179 23.200 C 137.057 23.090,136.534 22.280,136.015 21.400 C 133.896 17.802,130.242 16.322,127.600 17.991 M179.297 17.932 C 179.020 18.108,178.750 18.949,178.697 19.802 C 178.548 22.183,179.268 22.387,187.838 22.394 C 197.626 22.402,196.473 19.267,196.543 46.079 C 196.608 71.183,196.458 70.000,199.565 70.000 C 202.537 70.000,202.369 71.370,202.490 46.238 C 202.622 19.083,201.312 22.400,211.903 22.400 C 216.480 22.400,219.969 22.230,220.426 21.986 C 221.320 21.508,221.518 18.878,220.720 18.080 C 220.163 17.523,180.166 17.380,179.297 17.932 M230.349 18.261 C 228.755 20.183,229.827 55.637,231.622 60.362 C 236.854 74.130,262.140 75.372,269.052 62.200 C 271.462 57.608,271.586 56.352,271.593 36.347 L 271.600 18.093 270.700 17.852 C 265.914 16.570,265.914 16.571,265.976 32.088 C 266.081 58.547,264.987 62.600,256.997 65.345 C 250.024 67.740,241.857 65.769,238.428 60.863 C 235.973 57.352,235.850 56.254,235.698 36.600 C 235.543 16.420,235.737 17.600,232.573 17.600 C 231.503 17.600,230.700 17.839,230.349 18.261 M286.300 17.863 C 285.643 18.047,285.600 19.617,285.600 43.607 L 285.600 69.155 286.489 69.777 C 287.627 70.575,289.573 70.575,290.711 69.777 C 291.591 69.161,291.600 69.053,291.600 58.622 C 291.600 45.170,291.031 46.161,298.668 46.302 C 308.808 46.488,308.917 46.574,319.874 62.982 C 321.483 65.392,322.803 67.552,322.807 67.782 C 322.832 69.328,325.474 70.469,328.267 70.141 C 331.312 69.783,331.295 69.452,327.958 64.099 C 323.212 56.484,320.661 53.055,317.437 49.957 C 313.630 46.298,313.651 45.367,317.562 44.646 C 320.067 44.184,324.271 41.219,326.083 38.635 L 327.743 36.269 327.756 31.834 C 327.774 24.993,324.691 20.095,319.400 18.559 C 317.063 17.880,288.392 17.277,286.300 17.863 M336.100 17.865 C 335.278 18.196,335.521 19.036,337.000 20.973 C 337.770 21.982,338.400 22.918,338.400 23.053 C 338.400 23.188,339.252 24.491,340.293 25.949 C 341.334 27.407,343.809 31.008,345.793 33.951 C 347.777 36.893,349.660 39.683,349.978 40.151 C 350.296 40.618,351.556 42.527,352.778 44.393 L 355.000 47.787 355.200 58.393 C 355.429 70.534,355.283 70.000,358.374 70.000 C 361.315 70.000,361.200 70.496,361.200 57.844 C 361.200 46.831,360.961 47.788,365.162 41.998 C 366.518 40.129,368.691 37.041,369.991 35.135 C 372.450 31.532,374.967 27.956,378.929 22.439 C 381.850 18.372,381.807 17.839,378.542 17.682 C 376.869 17.602,375.920 17.738,375.546 18.111 C 374.545 19.114,372.610 21.632,371.800 22.987 C 371.360 23.723,369.380 26.705,367.400 29.614 C 365.420 32.523,363.304 35.825,362.697 36.952 C 360.113 41.752,358.098 42.835,356.639 40.209 C 356.398 39.774,355.995 39.234,355.744 39.009 C 355.355 38.661,353.495 35.696,349.865 29.639 C 349.416 28.891,348.638 27.835,348.135 27.292 C 347.632 26.749,346.735 25.472,346.141 24.453 C 344.854 22.242,342.029 18.319,341.428 17.906 C 340.953 17.580,336.885 17.548,336.100 17.865 M313.756 22.428 C 322.612 24.182,325.065 34.014,317.880 38.963 C 314.822 41.069,313.793 41.242,303.000 41.469 C 290.599 41.730,291.834 42.741,291.677 32.198 C 291.543 23.244,291.746 22.208,293.690 21.926 C 295.589 21.650,311.888 22.058,313.756 22.428 M324.600 244.634 C 318.878 245.416,316.717 245.901,312.095 247.437 C 309.178 248.407,306.591 249.200,306.346 249.200 C 306.101 249.200,304.513 249.895,302.817 250.744 C 300.201 252.053,298.428 253.064,293.248 256.200 C 291.885 257.026,289.360 258.977,284.969 262.600 C 279.234 267.331,272.445 275.728,268.967 282.394 C 268.289 283.693,267.553 284.991,267.331 285.278 C 267.109 285.565,266.078 287.960,265.040 290.600 C 264.001 293.240,262.994 295.760,262.800 296.200 C 258.216 306.630,258.771 332.509,263.869 346.000 C 267.608 355.895,275.263 368.220,280.272 372.412 C 280.674 372.748,281.363 373.468,281.803 374.012 C 282.243 374.555,283.503 375.710,284.602 376.577 C 285.701 377.444,287.341 378.794,288.246 379.577 C 291.318 382.234,296.702 385.729,301.282 388.041 C 302.935 388.876,303.600 389.439,303.600 390.006 C 303.600 390.791,303.939 390.800,333.700 390.797 L 363.800 390.795 364.449 389.654 C 364.807 389.025,365.595 388.388,366.203 388.235 C 366.810 388.083,368.588 387.115,370.154 386.084 C 371.719 385.053,373.439 383.976,373.975 383.689 C 377.825 381.636,386.206 373.860,390.800 368.079 C 392.268 366.233,393.705 364.806,394.100 364.804 C 394.754 364.800,394.800 363.818,394.800 349.800 C 394.800 338.952,394.675 334.800,394.350 334.800 C 393.250 334.800,385.871 339.078,383.555 341.058 C 382.150 342.260,379.912 344.178,378.581 345.321 C 377.251 346.465,375.192 348.570,374.005 350.000 C 358.863 368.247,343.348 374.191,321.863 369.977 C 319.645 369.542,314.096 367.397,313.201 366.629 C 312.871 366.345,312.016 365.917,311.302 365.678 C 308.489 364.735,296.000 353.940,296.000 352.452 C 296.000 352.305,295.191 351.108,294.203 349.792 C 293.215 348.476,292.202 346.770,291.953 346.000 C 291.703 345.230,291.289 344.330,291.033 344.000 C 290.260 343.006,288.800 339.759,288.800 339.036 C 288.800 338.664,288.551 337.874,288.247 337.280 C 287.943 336.686,287.564 335.390,287.404 334.400 C 287.244 333.410,286.825 331.520,286.473 330.200 C 284.885 324.254,285.675 310.678,288.079 302.600 C 290.825 293.371,299.388 281.545,307.001 276.466 C 311.377 273.547,313.471 272.356,315.000 271.918 C 315.880 271.666,316.792 271.317,317.027 271.142 C 322.127 267.339,344.743 267.279,350.189 271.053 C 350.623 271.354,351.343 271.604,351.789 271.609 C 353.060 271.624,360.242 275.869,362.800 278.117 C 366.236 281.137,370.209 285.071,371.799 287.030 C 374.568 290.440,374.967 290.889,376.356 292.160 C 377.102 292.842,377.912 293.591,378.156 293.824 C 379.735 295.332,384.116 298.861,385.615 299.834 C 386.597 300.471,387.490 301.098,387.600 301.228 C 387.773 301.432,390.782 303.044,392.895 304.064 C 394.858 305.013,394.800 305.451,394.800 289.600 C 394.800 275.775,394.754 274.799,394.100 274.791 C 393.714 274.785,392.421 273.522,391.216 271.972 C 380.616 258.340,366.516 249.390,349.600 245.559 C 345.945 244.731,328.586 244.089,324.600 244.634 " stroke="none" fill="#f9eceb" fill-rule="evenodd"></path><path id="path2" d="M38.200 15.574 C 36.085 15.922,32.073 17.124,31.400 17.612 C 31.180 17.772,30.550 18.040,30.000 18.209 C 25.787 19.500,20.823 25.512,17.819 32.961 C 16.143 37.117,16.252 49.590,18.008 54.574 C 22.441 67.163,29.418 72.203,42.400 72.197 C 53.237 72.192,59.169 69.184,63.456 61.518 C 66.910 55.342,67.056 53.265,64.076 52.668 C 63.484 52.550,62.153 52.233,61.117 51.963 C 58.876 51.380,58.289 51.705,57.562 53.932 C 55.325 60.788,49.480 65.187,42.600 65.193 C 36.309 65.199,27.600 59.622,27.600 55.587 C 27.600 55.249,27.209 53.899,26.731 52.586 C 25.467 49.112,25.599 38.963,26.973 34.096 C 27.854 30.973,30.841 26.400,32.000 26.400 C 32.186 26.400,33.138 25.790,34.114 25.045 C 40.706 20.013,51.925 22.708,55.816 30.259 C 57.654 33.825,58.003 34.001,61.597 33.175 C 65.542 32.267,65.927 31.313,64.033 27.137 C 60.197 18.677,49.217 13.762,38.200 15.574 M50.302 16.641 C 56.002 18.283,60.995 22.271,63.203 26.944 C 65.003 30.753,64.883 31.317,62.059 32.346 C 58.425 33.672,58.108 33.493,55.411 28.600 C 50.398 19.507,33.744 20.304,28.117 29.906 C 24.830 35.515,24.223 47.508,26.840 55.117 C 29.618 63.190,39.660 67.834,47.895 64.854 C 52.363 63.238,54.515 61.224,56.975 56.358 C 59.034 52.285,59.282 52.112,62.160 52.756 C 66.637 53.758,66.439 56.671,61.425 63.600 C 54.515 73.147,36.810 75.037,26.908 67.284 C 15.845 58.623,13.761 36.005,22.983 24.684 C 29.015 17.279,40.640 13.857,50.302 16.641 M75.800 16.478 C 75.360 16.727,74.868 17.127,74.706 17.366 C 74.144 18.196,74.342 70.168,74.910 70.945 C 75.727 72.062,115.441 72.105,116.257 70.990 C 117.128 69.799,116.989 64.929,116.070 64.437 C 115.638 64.207,108.951 64.014,99.708 63.968 C 84.236 63.889,84.071 63.880,83.669 63.044 C 83.200 62.071,83.234 48.056,83.707 47.327 C 83.935 46.976,87.626 46.866,97.993 46.901 C 114.424 46.957,113.600 47.167,113.600 42.938 C 113.600 38.784,114.483 39.019,98.400 38.884 C 90.810 38.820,84.285 38.673,83.900 38.557 C 83.187 38.342,82.814 26.878,83.445 24.529 L 83.678 23.657 99.139 23.623 C 116.976 23.584,115.708 23.895,115.516 19.612 C 115.413 17.306,115.290 16.965,114.400 16.516 C 113.040 15.830,77.005 15.795,75.800 16.478 M126.229 16.629 C 125.476 17.381,125.401 21.192,125.556 50.600 C 125.676 73.527,125.332 71.801,129.767 71.733 C 134.341 71.664,133.984 73.415,133.977 51.085 C 133.974 40.572,134.087 31.784,134.228 31.555 C 134.491 31.130,136.400 33.611,136.400 34.378 C 136.400 34.609,136.990 35.473,137.712 36.299 C 138.854 37.605,139.978 39.235,141.410 41.661 C 142.031 42.713,145.738 48.180,145.980 48.400 C 146.549 48.918,147.917 51.109,148.171 51.908 C 148.326 52.398,148.610 52.800,148.800 52.800 C 148.990 52.800,149.248 53.115,149.372 53.500 C 149.496 53.885,150.095 54.740,150.704 55.400 C 151.312 56.060,152.035 57.050,152.311 57.600 C 153.100 59.171,155.249 62.470,157.024 64.836 C 157.917 66.026,159.388 68.010,160.294 69.244 C 162.148 71.769,163.490 72.254,167.246 71.756 C 170.599 71.311,170.383 73.241,170.388 43.719 C 170.394 13.327,170.811 16.000,166.062 16.000 C 161.669 16.000,162.000 14.294,162.000 36.928 L 162.000 56.392 161.186 55.696 C 160.738 55.313,159.626 53.740,158.715 52.200 C 157.804 50.660,156.667 48.950,156.189 48.400 C 155.249 47.317,151.105 41.327,147.750 36.200 C 146.599 34.440,145.149 32.305,144.528 31.456 C 143.908 30.607,142.770 28.950,142.000 27.773 C 139.695 24.252,136.446 19.453,135.803 18.619 C 135.471 18.189,135.200 17.699,135.200 17.529 C 135.200 16.109,127.519 15.338,126.229 16.629 M178.277 16.280 C 176.720 16.684,176.220 21.196,177.551 22.839 C 178.297 23.760,178.367 23.767,186.251 23.672 C 194.929 23.569,194.929 23.569,195.561 25.601 L 195.997 27.000 195.796 25.638 C 195.436 23.196,195.456 23.201,186.851 23.187 C 177.573 23.172,177.600 23.182,177.600 19.835 C 177.600 16.399,176.581 16.533,200.800 16.785 L 221.400 17.000 221.520 19.535 C 221.699 23.322,221.996 23.199,212.651 23.206 C 208.223 23.209,204.366 23.361,204.080 23.542 C 203.664 23.806,203.543 28.481,203.480 46.772 L 203.400 69.671 202.456 70.435 C 201.795 70.971,200.883 71.200,199.418 71.200 C 196.085 71.200,195.975 70.947,195.614 62.524 L 195.308 55.400 195.310 62.600 C 195.311 72.003,195.382 72.133,200.377 71.829 C 204.256 71.593,204.000 73.323,204.000 47.388 C 204.000 35.001,204.106 24.589,204.236 24.251 C 204.436 23.728,205.683 23.635,212.696 23.618 C 218.148 23.604,221.103 23.447,221.460 23.150 C 222.157 22.572,222.205 17.165,221.520 16.480 C 221.047 16.007,180.062 15.818,178.277 16.280 M228.988 16.963 C 228.193 18.175,228.252 55.444,229.050 56.439 C 229.297 56.748,229.627 57.900,229.783 59.000 C 230.091 61.173,231.139 63.868,232.042 64.808 C 232.355 65.134,232.920 65.884,233.298 66.475 C 233.676 67.066,234.428 67.786,234.969 68.075 C 235.510 68.364,236.762 69.096,237.750 69.702 C 246.172 74.863,263.764 72.451,268.883 65.434 C 272.902 59.924,273.200 57.841,273.200 35.292 L 273.200 17.245 272.311 16.623 C 271.706 16.199,270.500 16.000,268.534 16.000 C 264.121 16.000,264.400 14.772,264.397 34.189 C 264.395 51.723,263.760 59.231,262.209 60.099 C 261.874 60.286,261.600 60.663,261.600 60.936 C 261.600 61.208,260.318 62.124,258.750 62.971 C 251.288 67.001,241.911 64.797,238.470 58.203 L 237.424 56.200 237.212 36.667 C 236.966 14.034,237.411 16.000,232.533 16.000 C 229.895 16.000,229.558 16.092,228.988 16.963 M284.654 16.740 C 283.997 17.466,283.920 19.174,284.008 31.000 C 284.013 31.660,284.001 40.603,283.981 50.874 C 283.937 73.399,283.654 72.174,288.800 71.749 C 292.851 71.414,292.573 72.259,292.800 59.566 C 293.037 46.285,292.333 47.514,299.600 47.703 C 307.769 47.914,309.564 49.260,316.176 60.125 C 316.603 60.826,317.700 62.390,318.614 63.600 C 319.527 64.810,320.391 66.273,320.533 66.852 C 320.675 67.430,321.613 68.818,322.618 69.936 L 324.446 71.968 327.914 71.940 C 333.390 71.894,334.204 71.191,332.200 68.238 C 331.650 67.428,331.200 66.681,331.200 66.578 C 331.200 66.476,330.602 65.539,329.872 64.496 C 329.141 63.453,328.048 61.752,327.443 60.715 C 326.473 59.056,323.125 54.253,322.005 52.917 C 321.782 52.651,321.600 52.308,321.600 52.153 C 321.600 51.999,320.400 50.725,318.934 49.322 C 315.993 46.508,315.998 46.452,319.319 45.448 C 333.873 41.049,332.614 19.878,317.600 16.540 C 313.574 15.646,285.490 15.816,284.654 16.740 M334.500 16.412 C 333.160 16.951,333.387 17.967,335.600 21.323 C 336.700 22.991,337.600 24.489,337.600 24.652 C 337.600 24.815,337.940 25.320,338.355 25.774 C 339.448 26.968,344.181 34.006,345.125 35.839 C 345.567 36.698,346.479 38.030,347.152 38.800 C 349.131 41.065,349.200 41.154,349.200 41.435 C 349.200 41.583,349.791 42.536,350.514 43.552 C 353.785 48.153,353.600 47.207,353.600 59.346 C 353.600 72.267,353.372 71.573,357.704 71.809 C 360.620 71.968,360.842 71.920,361.759 70.931 L 362.729 69.884 362.781 59.062 C 362.818 51.452,362.977 47.974,363.317 47.345 C 363.582 46.853,364.845 44.954,366.121 43.125 C 368.996 39.008,370.018 37.528,371.688 35.069 C 372.410 34.007,373.675 32.257,374.500 31.181 C 375.325 30.104,376.000 29.129,376.000 29.014 C 376.000 28.767,380.289 22.851,382.008 20.727 C 384.390 17.783,383.756 16.532,379.691 16.154 C 375.856 15.797,375.062 16.074,373.533 18.303 C 372.818 19.347,371.895 20.560,371.483 21.000 C 371.070 21.440,370.456 22.328,370.118 22.973 C 369.780 23.618,368.535 25.598,367.349 27.373 C 366.164 29.148,364.971 30.940,364.697 31.356 C 364.424 31.771,363.817 32.581,363.349 33.156 C 362.881 33.730,362.081 35.100,361.571 36.200 C 359.129 41.468,358.093 41.325,355.039 35.302 C 354.677 34.587,353.400 32.562,352.200 30.800 C 351.000 29.038,349.725 27.013,349.365 26.298 C 349.005 25.584,348.365 24.640,347.943 24.200 C 347.520 23.760,346.232 21.963,345.079 20.208 C 342.409 16.140,338.588 14.769,334.500 16.412 M114.443 17.439 C 115.505 18.400,115.480 21.320,114.400 22.400 C 113.628 23.172,113.067 23.200,98.614 23.200 C 80.812 23.200,82.800 22.154,82.800 31.525 C 82.800 40.083,82.012 39.370,91.553 39.440 C 115.005 39.611,112.800 39.219,112.800 43.214 C 112.800 46.527,113.414 46.400,97.440 46.400 C 80.951 46.400,82.800 45.251,82.800 55.497 C 82.800 65.557,80.649 64.399,99.533 64.509 C 114.587 64.596,115.289 64.633,115.832 65.376 C 116.958 66.916,116.439 70.072,114.947 70.751 C 113.274 71.513,76.825 71.345,75.800 70.570 C 74.835 69.841,74.509 18.531,75.463 17.577 C 76.741 16.299,113.041 16.170,114.443 17.439 M272.000 17.464 C 272.822 18.238,272.889 52.242,272.077 56.550 C 269.733 68.990,255.450 75.533,241.200 70.695 C 230.751 67.147,229.001 62.166,229.000 35.962 C 229.000 15.335,228.707 16.800,232.835 16.800 C 236.609 16.800,236.398 15.795,236.413 33.874 C 236.430 54.602,236.848 57.748,240.071 61.420 C 244.845 66.857,257.657 66.739,261.969 61.219 C 264.463 58.027,264.509 57.623,264.766 36.961 C 265.018 16.687,264.981 17.006,267.129 16.690 C 268.813 16.442,271.342 16.844,272.000 17.464 M317.812 17.323 C 322.739 18.591,325.228 20.498,327.296 24.585 C 331.552 32.999,327.402 42.389,318.105 45.386 C 315.182 46.328,315.193 46.449,318.507 49.701 C 321.257 52.398,323.025 54.855,329.663 65.200 C 333.238 70.772,333.109 71.200,327.846 71.200 C 324.101 71.200,323.601 70.876,321.409 67.033 C 320.269 65.034,317.940 61.542,313.326 54.914 C 310.619 51.026,308.246 48.670,306.113 47.753 C 304.362 47.001,293.492 46.966,292.873 47.711 C 292.604 48.036,292.403 52.187,292.324 59.051 C 292.180 71.648,292.314 71.200,288.683 71.200 C 284.436 71.200,284.800 73.771,284.800 43.787 C 284.800 15.588,284.685 16.997,287.000 16.735 C 291.013 16.283,315.590 16.751,317.812 17.323 M382.316 17.346 C 383.135 17.856,382.567 18.953,378.858 24.024 C 375.773 28.241,371.330 34.576,365.995 42.365 C 365.002 43.814,363.742 45.600,363.195 46.332 C 362.204 47.659,362.199 47.707,362.000 58.771 C 361.770 71.535,361.863 71.200,358.570 71.200 C 354.004 71.200,354.009 71.216,354.003 57.047 C 354.000 47.389,353.967 47.196,351.908 44.600 C 351.734 44.380,350.750 42.940,349.723 41.400 C 348.696 39.860,345.972 35.810,343.669 32.400 C 335.751 20.673,334.405 18.599,334.403 18.114 C 334.392 16.220,341.455 16.209,342.895 18.100 C 344.057 19.627,353.966 34.533,356.000 37.815 C 358.382 41.657,359.623 41.372,362.069 36.420 C 362.553 35.441,363.581 33.789,364.355 32.748 C 365.128 31.707,366.130 30.249,366.581 29.506 C 368.801 25.851,371.444 21.951,374.410 17.957 C 375.396 16.629,380.529 16.232,382.316 17.346 M134.476 17.900 C 135.041 18.505,135.929 19.651,136.451 20.447 C 139.507 25.106,144.499 32.458,155.840 49.000 C 156.292 49.660,157.369 51.272,158.231 52.583 C 160.401 55.879,161.858 57.347,162.165 56.546 C 162.294 56.210,162.400 47.477,162.400 37.141 C 162.400 15.431,162.160 16.800,165.965 16.800 C 170.043 16.800,169.706 14.348,169.712 44.027 C 169.718 73.230,170.013 70.888,166.299 71.116 C 163.003 71.318,161.870 70.817,160.304 68.463 C 159.587 67.386,157.560 64.413,155.800 61.858 C 154.040 59.303,152.240 56.673,151.800 56.012 C 151.360 55.352,148.120 50.563,144.600 45.370 C 141.080 40.177,137.429 34.763,136.486 33.338 C 133.340 28.583,133.419 28.165,133.272 50.404 C 133.126 72.647,133.382 71.200,129.600 71.200 C 125.670 71.200,125.967 73.506,126.091 43.920 C 126.180 22.762,126.299 18.004,126.749 17.461 C 127.775 16.226,133.202 16.534,134.476 17.900 M293.100 23.210 C 292.067 23.844,292.032 39.196,293.061 40.051 C 294.449 41.203,312.676 40.681,315.736 39.401 C 322.540 36.557,322.858 27.538,316.275 24.106 C 313.973 22.906,294.804 22.165,293.100 23.210 M315.763 24.418 C 322.153 27.613,322.060 35.976,315.600 38.967 C 312.959 40.189,293.227 40.509,293.156 39.330 C 292.729 32.196,292.933 23.629,293.534 23.478 C 296.427 22.748,313.901 23.487,315.763 24.418 M195.373 37.000 C 195.373 42.280,195.430 44.385,195.499 41.677 C 195.568 38.969,195.568 34.649,195.499 32.077 C 195.429 29.505,195.372 31.720,195.373 37.000 M320.484 243.446 C 317.253 244.039,314.134 245.068,314.491 245.424 C 314.588 245.521,316.028 245.253,317.690 244.828 C 343.634 238.193,374.406 249.083,391.626 270.995 C 393.474 273.347,394.800 274.268,394.800 273.200 C 394.800 272.980,394.479 272.800,394.086 272.800 C 393.456 272.800,392.938 272.194,391.400 269.659 C 390.450 268.093,380.772 258.810,378.400 257.189 C 376.970 256.212,375.080 254.870,374.200 254.206 C 371.517 252.183,371.479 252.163,364.000 248.704 C 362.570 248.042,359.960 247.061,358.200 246.522 C 356.440 245.983,354.330 245.289,353.511 244.979 C 348.168 242.956,328.209 242.030,320.484 243.446 M309.800 246.588 C 307.014 247.507,299.763 250.590,299.000 251.180 C 298.780 251.350,298.105 251.608,297.500 251.752 C 296.895 251.897,296.400 252.192,296.400 252.408 C 296.400 252.623,296.212 252.800,295.982 252.800 C 295.554 252.800,290.365 256.238,290.002 256.762 C 289.891 256.922,288.900 257.659,287.800 258.401 C 283.686 261.173,271.297 274.397,270.441 276.929 C 270.353 277.188,269.801 278.120,269.213 279.000 C 267.812 281.098,264.086 288.756,262.985 291.800 C 262.507 293.120,261.663 295.460,261.108 297.000 C 257.241 307.729,257.031 334.157,260.757 341.120 C 260.986 341.547,261.348 342.595,261.561 343.448 C 262.759 348.228,267.524 358.396,270.059 361.579 C 270.907 362.644,271.600 363.631,271.600 363.773 C 271.600 364.104,273.184 366.320,274.100 367.272 C 274.485 367.673,274.800 368.195,274.800 368.433 C 274.800 368.671,277.270 371.309,280.288 374.295 C 285.052 379.006,287.734 381.225,290.866 383.045 C 291.286 383.289,291.849 383.779,292.115 384.133 C 292.576 384.745,294.779 386.103,297.400 387.389 C 298.994 388.171,300.228 389.240,300.529 390.100 C 300.859 391.040,301.600 390.992,301.600 390.030 C 301.600 389.482,300.591 388.680,298.100 387.247 C 289.225 382.143,281.290 375.498,275.355 368.200 C 273.876 366.381,273.094 365.261,269.349 359.600 C 266.260 354.931,260.856 341.327,260.195 336.558 C 260.046 335.481,259.671 333.091,259.362 331.248 C 257.980 323.002,258.987 305.527,261.253 298.436 C 264.595 287.980,270.229 277.115,275.367 271.216 C 285.758 259.285,296.268 251.862,308.820 247.588 C 311.559 246.656,313.875 245.827,313.967 245.746 C 314.435 245.335,312.279 245.771,309.800 246.588 M330.000 269.073 C 321.985 269.903,315.322 272.090,309.764 275.716 C 306.450 277.878,300.118 283.115,301.983 282.152 C 302.759 281.751,303.810 280.894,305.613 279.193 C 306.433 278.419,307.621 277.526,308.252 277.207 C 308.884 276.889,310.390 275.959,311.600 275.140 C 318.122 270.728,331.211 268.576,341.504 270.223 C 347.562 271.193,356.050 274.333,357.573 276.167 C 357.862 276.515,358.301 276.802,358.549 276.804 C 359.499 276.811,367.730 284.095,369.846 286.800 C 372.407 290.076,378.389 296.284,380.108 297.451 C 381.039 298.083,381.980 298.800,382.200 299.045 C 382.816 299.732,387.036 302.800,387.363 302.800 C 387.523 302.800,388.244 303.250,388.965 303.801 C 390.783 305.187,394.800 306.426,394.800 305.600 C 394.800 305.380,394.455 305.200,394.033 305.200 C 389.594 305.200,379.095 296.822,369.400 285.545 C 359.647 274.200,343.932 267.630,330.000 269.073 M299.488 284.433 C 295.846 288.300,290.226 297.796,289.095 301.993 C 284.490 319.075,286.487 337.061,294.225 348.200 C 294.837 349.080,295.841 350.538,296.457 351.441 C 301.410 358.697,311.496 365.991,320.153 368.576 C 325.912 370.296,341.707 370.817,344.056 369.365 C 344.220 369.264,345.399 368.991,346.677 368.759 C 353.869 367.451,364.215 360.242,371.617 351.380 C 378.245 343.445,387.536 336.277,394.200 333.958 C 394.886 333.720,394.847 333.674,393.929 333.640 C 393.339 333.618,392.619 333.825,392.329 334.100 C 392.038 334.375,390.720 335.112,389.400 335.738 C 388.080 336.364,386.280 337.408,385.400 338.057 C 384.520 338.706,382.826 339.946,381.636 340.812 C 378.297 343.243,371.850 349.764,369.000 353.593 C 366.965 356.327,358.524 363.233,355.778 364.409 C 354.690 364.876,353.530 365.500,353.200 365.798 C 346.951 371.426,322.276 370.707,312.288 364.605 C 310.700 363.634,308.590 362.357,307.600 361.766 C 301.118 357.899,291.380 344.425,289.332 336.489 C 285.566 321.900,286.601 306.453,292.021 296.343 C 293.622 293.359,293.872 292.937,295.709 290.140 C 296.742 288.567,298.295 286.609,299.160 285.789 C 300.350 284.662,301.608 282.695,301.063 282.814 C 301.028 282.821,300.320 283.550,299.488 284.433 M393.200 366.337 C 393.200 367.869,377.747 383.200,376.203 383.200 C 376.065 383.200,375.186 383.785,374.249 384.500 C 373.313 385.215,371.079 386.610,369.285 387.600 C 366.220 389.291,364.955 390.800,366.600 390.800 C 366.930 390.800,367.201 390.485,367.201 390.100 C 367.202 389.662,368.033 388.952,369.419 388.204 C 370.638 387.547,373.113 385.972,374.918 384.705 C 376.723 383.437,378.830 381.968,379.600 381.439 C 380.370 380.910,381.855 379.583,382.901 378.490 C 383.947 377.396,385.403 376.090,386.137 375.587 C 386.871 375.084,387.861 374.116,388.336 373.436 C 388.812 372.756,389.842 371.480,390.626 370.600 C 391.410 369.720,392.319 368.496,392.647 367.879 C 392.974 367.263,393.637 366.599,394.121 366.405 L 395.000 366.051 394.100 366.025 C 393.605 366.011,393.200 366.152,393.200 366.337 M393.439 385.894 C 393.308 386.026,393.200 386.463,393.200 386.867 C 393.200 387.270,392.930 387.600,392.600 387.600 C 391.922 387.600,391.851 387.945,392.363 388.754 C 392.772 389.400,393.595 388.189,393.606 386.926 C 393.611 386.376,393.694 386.329,393.950 386.734 C 394.226 387.168,394.332 387.155,394.519 386.667 C 394.750 386.064,393.887 385.446,393.439 385.894 M389.677 389.125 C 389.169 389.200,388.823 389.473,388.908 389.731 C 389.082 390.262,391.203 390.630,391.194 390.127 C 391.180 389.410,390.553 388.995,389.677 389.125 " stroke="none" fill="#e17173" fill-rule="evenodd"></path><path id="path3" d="M39.200 15.861 C 23.276 17.988,14.170 33.115,17.914 51.223 C 20.758 64.977,28.709 71.703,42.200 71.768 C 53.457 71.823,59.623 68.285,64.102 59.200 C 66.321 54.699,65.994 53.614,62.160 52.756 C 59.282 52.112,59.034 52.285,56.975 56.358 C 50.342 69.482,31.516 68.707,26.840 55.117 C 24.223 47.508,24.830 35.515,28.117 29.906 C 33.744 20.304,50.398 19.507,55.411 28.600 C 58.108 33.493,58.425 33.672,62.059 32.346 C 64.883 31.317,65.003 30.753,63.203 26.944 C 59.566 19.245,49.312 14.511,39.200 15.861 M47.400 16.957 C 54.256 18.318,58.799 21.205,61.579 25.964 C 63.818 29.798,63.773 30.961,61.363 31.568 C 58.802 32.213,58.151 31.875,56.803 29.206 C 51.866 19.426,36.346 18.622,28.516 27.740 C 24.555 32.352,22.976 43.882,25.121 52.522 C 26.473 57.966,29.271 61.983,33.000 63.833 C 33.660 64.161,34.740 64.725,35.400 65.087 C 42.966 69.240,53.173 65.540,57.590 57.043 L 59.381 53.600 61.290 53.600 C 65.549 53.600,65.400 56.391,60.775 63.244 C 53.889 73.444,32.415 73.731,24.504 63.729 C 15.863 52.805,15.964 33.041,24.706 24.090 C 27.041 21.699,30.366 19.200,31.212 19.200 C 31.469 19.200,32.246 18.946,32.940 18.635 C 37.660 16.520,42.418 15.968,47.400 16.957 M77.181 16.857 C 74.898 17.325,75.000 16.057,75.000 44.003 C 75.000 69.497,75.014 69.976,75.800 70.570 C 76.825 71.345,113.274 71.513,114.947 70.751 C 116.439 70.072,116.958 66.916,115.832 65.376 C 115.289 64.633,114.587 64.596,99.533 64.509 C 80.649 64.399,82.800 65.557,82.800 55.497 C 82.800 45.251,80.951 46.400,97.440 46.400 C 113.414 46.400,112.800 46.527,112.800 43.214 C 112.800 39.219,115.005 39.611,91.553 39.440 C 82.012 39.370,82.800 40.083,82.800 31.525 C 82.800 22.154,80.812 23.200,98.614 23.200 C 115.750 23.200,115.200 23.311,115.200 19.862 C 115.200 16.621,116.060 16.764,96.061 16.677 C 86.368 16.635,77.872 16.716,77.181 16.857 M178.742 17.081 C 177.676 17.529,177.600 17.713,177.600 19.837 C 177.600 23.182,177.574 23.172,186.851 23.187 C 192.995 23.197,194.801 23.319,195.156 23.747 C 195.481 24.139,195.638 30.743,195.705 46.906 C 195.796 68.507,195.834 69.554,196.562 70.358 C 197.596 71.501,201.083 71.546,202.456 70.435 L 203.400 69.671 203.480 46.772 C 203.543 28.481,203.664 23.806,204.080 23.542 C 204.366 23.361,208.209 23.209,212.620 23.206 C 218.317 23.202,220.779 23.061,221.120 22.720 C 221.777 22.063,221.760 17.230,221.100 17.004 C 219.766 16.549,179.835 16.621,178.742 17.081 M267.129 16.690 C 264.981 17.006,265.018 16.687,264.766 36.961 C 264.509 57.623,264.463 58.027,261.969 61.219 C 257.657 66.739,244.845 66.857,240.071 61.420 C 236.848 57.748,236.430 54.602,236.413 33.874 C 236.398 15.795,236.609 16.800,232.835 16.800 C 228.707 16.800,229.000 15.335,229.000 35.962 C 229.001 62.166,230.751 67.147,241.200 70.695 C 255.450 75.533,269.733 68.990,272.077 56.550 C 272.889 52.242,272.822 18.238,272.000 17.464 C 271.342 16.844,268.813 16.442,267.129 16.690 M287.000 16.735 C 284.685 16.997,284.800 15.588,284.800 43.787 C 284.800 73.771,284.436 71.200,288.683 71.200 C 292.314 71.200,292.180 71.648,292.324 59.051 C 292.403 52.187,292.604 48.036,292.873 47.711 C 293.492 46.966,304.362 47.001,306.113 47.753 C 308.246 48.670,310.619 51.026,313.326 54.914 C 317.940 61.542,320.269 65.034,321.409 67.033 C 323.601 70.876,324.101 71.200,327.846 71.200 C 333.109 71.200,333.238 70.772,329.663 65.200 C 323.025 54.855,321.257 52.398,318.507 49.701 C 315.193 46.449,315.182 46.328,318.105 45.386 C 327.402 42.389,331.552 32.999,327.296 24.585 C 325.228 20.498,322.739 18.591,317.812 17.323 C 315.590 16.751,291.013 16.283,287.000 16.735 M376.390 16.856 C 375.636 17.010,374.745 17.505,374.410 17.957 C 371.444 21.951,368.801 25.851,366.581 29.506 C 366.130 30.249,365.128 31.707,364.355 32.748 C 363.581 33.789,362.553 35.441,362.069 36.420 C 359.623 41.372,358.382 41.657,356.000 37.815 C 353.966 34.533,344.057 19.627,342.895 18.100 C 341.455 16.209,334.392 16.220,334.403 18.114 C 334.405 18.599,335.751 20.673,343.669 32.400 C 345.972 35.810,348.696 39.860,349.723 41.400 C 350.750 42.940,351.734 44.380,351.908 44.600 C 353.967 47.196,354.000 47.389,354.003 57.047 C 354.009 71.216,354.004 71.200,358.570 71.200 C 361.863 71.200,361.770 71.535,362.000 58.771 C 362.199 47.707,362.204 47.659,363.195 46.332 C 363.742 45.600,365.002 43.814,365.995 42.365 C 371.330 34.576,375.773 28.241,378.858 24.024 C 382.567 18.953,383.135 17.856,382.316 17.346 C 381.510 16.843,377.906 16.546,376.390 16.856 M126.749 17.461 C 126.299 18.004,126.180 22.762,126.091 43.920 C 125.967 73.506,125.670 71.200,129.600 71.200 C 133.382 71.200,133.126 72.647,133.272 50.404 C 133.419 28.165,133.340 28.583,136.486 33.338 C 137.429 34.763,141.080 40.177,144.600 45.370 C 148.120 50.563,151.360 55.352,151.800 56.012 C 152.240 56.673,154.040 59.303,155.800 61.858 C 157.560 64.413,159.587 67.386,160.304 68.463 C 161.870 70.817,163.003 71.318,166.299 71.116 C 170.013 70.888,169.718 73.230,169.712 44.027 C 169.706 14.348,170.043 16.800,165.965 16.800 C 162.160 16.800,162.400 15.431,162.400 37.141 C 162.400 47.477,162.294 56.210,162.165 56.546 C 161.858 57.347,160.401 55.879,158.231 52.583 C 157.369 51.272,156.292 49.660,155.840 49.000 C 144.499 32.458,139.507 25.106,136.451 20.447 C 134.255 17.098,133.758 16.800,130.374 16.800 C 128.001 16.800,127.172 16.951,126.749 17.461 M113.520 18.080 C 114.213 18.773,114.110 20.816,113.338 21.669 C 112.720 22.352,111.716 22.400,98.182 22.400 C 79.960 22.400,81.827 21.408,81.722 31.148 C 81.614 41.221,79.816 40.148,97.264 40.423 C 113.782 40.683,111.667 40.285,111.520 43.100 L 111.400 45.400 97.400 45.600 C 87.696 45.739,83.155 45.945,82.600 46.272 C 81.839 46.720,81.800 47.167,81.800 55.354 C 81.800 66.419,79.718 65.170,98.200 65.193 C 114.743 65.214,114.917 65.239,115.120 67.643 C 115.342 70.276,115.922 70.200,95.553 70.200 C 79.607 70.200,77.150 70.120,76.614 69.586 C 75.802 68.774,75.616 19.145,76.422 18.174 C 77.066 17.398,112.747 17.307,113.520 18.080 M134.062 18.700 C 134.618 19.305,135.497 20.520,136.015 21.400 C 136.534 22.280,137.057 23.090,137.179 23.200 C 137.438 23.434,138.531 25.030,144.714 34.200 C 147.235 37.940,149.636 41.372,150.049 41.826 C 150.462 42.280,150.800 42.798,150.800 42.978 C 150.800 43.158,151.397 44.136,152.127 45.152 C 155.104 49.297,156.400 51.205,156.400 51.443 C 156.400 51.581,157.373 52.987,158.562 54.566 C 163.156 60.671,162.976 61.343,163.111 37.583 L 163.222 18.088 164.111 17.849 C 165.454 17.489,167.725 17.565,168.400 17.992 C 169.422 18.638,169.398 68.497,168.376 69.422 C 167.130 70.549,162.862 70.380,161.893 69.165 C 160.301 67.171,153.106 56.565,152.786 55.742 C 152.602 55.270,152.286 54.820,152.083 54.742 C 151.881 54.664,150.834 53.217,149.758 51.526 C 148.681 49.835,146.345 46.325,144.566 43.726 C 142.787 41.127,140.315 37.470,139.072 35.600 C 135.911 30.844,134.812 29.600,133.775 29.600 C 132.406 29.600,132.400 29.681,132.395 49.533 C 132.388 71.602,132.608 70.000,129.578 70.000 L 127.249 70.000 127.003 68.300 C 126.426 64.303,126.970 18.389,127.600 17.991 C 129.016 17.096,132.988 17.532,134.062 18.700 M220.720 18.080 C 221.518 18.878,221.320 21.508,220.426 21.986 C 219.969 22.230,216.480 22.400,211.903 22.400 C 201.312 22.400,202.622 19.083,202.490 46.238 C 202.369 71.370,202.537 70.000,199.565 70.000 C 196.458 70.000,196.608 71.183,196.543 46.079 C 196.473 19.267,197.626 22.402,187.838 22.394 C 179.268 22.387,178.548 22.183,178.697 19.802 C 178.750 18.949,179.020 18.108,179.297 17.932 C 180.166 17.380,220.163 17.523,220.720 18.080 M234.903 18.100 C 235.491 18.548,235.574 20.485,235.698 36.600 C 235.850 56.254,235.973 57.352,238.428 60.863 C 241.857 65.769,250.024 67.740,256.997 65.345 C 264.987 62.600,266.081 58.547,265.976 32.088 C 265.914 16.571,265.914 16.570,270.700 17.852 L 271.600 18.093 271.593 36.347 C 271.586 56.352,271.462 57.608,269.052 62.200 C 265.117 69.699,256.465 72.600,244.400 70.464 C 236.107 68.995,231.644 64.034,230.314 54.805 C 229.577 49.692,229.606 19.156,230.349 18.261 C 231.009 17.466,233.935 17.362,234.903 18.100 M319.400 18.559 C 324.691 20.095,327.774 24.993,327.756 31.834 L 327.743 36.269 326.083 38.635 C 324.271 41.219,320.067 44.184,317.562 44.646 C 313.651 45.367,313.630 46.298,317.437 49.957 C 320.661 53.055,323.212 56.484,327.958 64.099 C 331.295 69.452,331.312 69.783,328.267 70.141 C 325.474 70.469,322.832 69.328,322.807 67.782 C 322.803 67.552,321.483 65.392,319.874 62.982 C 308.917 46.574,308.808 46.488,298.668 46.302 C 291.031 46.161,291.600 45.170,291.600 58.622 C 291.600 69.053,291.591 69.161,290.711 69.777 C 289.573 70.575,287.627 70.575,286.489 69.777 L 285.600 69.155 285.600 43.607 C 285.600 19.617,285.643 18.047,286.300 17.863 C 288.392 17.277,317.063 17.880,319.400 18.559 M341.428 17.906 C 342.029 18.319,344.854 22.242,346.141 24.453 C 346.735 25.472,347.632 26.749,348.135 27.292 C 348.638 27.835,349.416 28.891,349.865 29.639 C 353.495 35.696,355.355 38.661,355.744 39.009 C 355.995 39.234,356.398 39.774,356.639 40.209 C 358.098 42.835,360.113 41.752,362.697 36.952 C 363.304 35.825,365.420 32.523,367.400 29.614 C 369.380 26.705,371.360 23.723,371.800 22.987 C 372.610 21.632,374.545 19.114,375.546 18.111 C 375.920 17.738,376.869 17.602,378.542 17.682 C 381.807 17.839,381.850 18.372,378.929 22.439 C 374.967 27.956,372.450 31.532,369.991 35.135 C 368.691 37.041,366.518 40.129,365.162 41.998 C 360.961 47.788,361.200 46.831,361.200 57.844 C 361.200 70.496,361.315 70.000,358.374 70.000 C 355.283 70.000,355.429 70.534,355.200 58.393 L 355.000 47.787 352.778 44.393 C 351.556 42.527,350.296 40.618,349.978 40.151 C 349.660 39.683,347.777 36.893,345.793 33.951 C 343.809 31.008,341.334 27.407,340.293 25.949 C 339.252 24.491,338.400 23.188,338.400 23.053 C 338.400 22.918,337.770 21.982,337.000 20.973 C 335.521 19.036,335.278 18.196,336.100 17.865 C 336.885 17.548,340.953 17.580,341.428 17.906 M293.690 21.926 C 291.746 22.208,291.543 23.244,291.677 32.198 C 291.834 42.741,290.599 41.730,303.000 41.469 C 313.793 41.242,314.822 41.069,317.880 38.963 C 325.065 34.014,322.612 24.182,313.756 22.428 C 311.888 22.058,295.589 21.650,293.690 21.926 M316.275 24.106 C 322.858 27.538,322.540 36.557,315.736 39.401 C 312.676 40.681,294.449 41.203,293.061 40.051 C 292.032 39.196,292.067 23.844,293.100 23.210 C 294.804 22.165,313.973 22.906,316.275 24.106 M324.621 243.611 C 306.337 245.710,289.232 255.297,275.367 271.216 C 270.229 277.115,264.595 287.980,261.253 298.436 C 258.987 305.527,257.980 323.002,259.362 331.248 C 259.671 333.091,260.046 335.481,260.195 336.558 C 260.856 341.327,266.260 354.931,269.349 359.600 C 273.094 365.261,273.876 366.381,275.355 368.200 C 281.290 375.498,289.225 382.143,298.100 387.247 C 300.591 388.680,301.600 389.482,301.600 390.030 C 301.600 390.585,301.880 390.800,302.600 390.800 C 304.539 390.800,303.838 389.332,301.282 388.041 C 296.702 385.729,291.318 382.234,288.246 379.577 C 287.341 378.794,285.701 377.444,284.602 376.577 C 283.503 375.710,282.243 374.555,281.803 374.012 C 281.363 373.468,280.674 372.748,280.272 372.412 C 273.966 367.135,264.746 350.863,261.793 339.800 C 259.848 332.512,259.019 316.437,260.197 308.848 C 260.989 303.743,262.315 297.305,262.800 296.200 C 262.994 295.760,264.001 293.240,265.040 290.600 C 266.078 287.960,267.109 285.565,267.331 285.278 C 267.553 284.991,268.289 283.693,268.967 282.394 C 272.445 275.728,279.234 267.331,284.969 262.600 C 289.360 258.977,291.885 257.026,293.248 256.200 C 298.428 253.064,300.201 252.053,302.817 250.744 C 304.513 249.895,306.101 249.200,306.346 249.200 C 306.591 249.200,309.178 248.408,312.095 247.441 C 325.494 242.997,343.977 243.258,358.389 248.094 C 370.725 252.233,382.563 260.844,391.216 271.972 C 393.268 274.612,394.800 275.564,394.800 274.200 C 394.800 273.870,394.546 273.600,394.237 273.600 C 393.927 273.600,392.752 272.428,391.626 270.995 C 375.848 250.919,350.656 240.623,324.621 243.611 M326.400 268.590 C 323.091 269.078,317.899 270.490,317.031 271.138 C 316.794 271.315,315.880 271.666,315.000 271.918 C 313.471 272.356,311.377 273.547,307.001 276.466 C 299.388 281.545,290.825 293.371,288.079 302.600 C 285.675 310.678,284.885 324.254,286.473 330.200 C 286.825 331.520,287.244 333.410,287.404 334.400 C 287.564 335.390,287.943 336.686,288.247 337.280 C 288.551 337.874,288.800 338.664,288.800 339.036 C 288.800 339.759,290.260 343.006,291.033 344.000 C 291.289 344.330,291.703 345.230,291.953 346.000 C 292.202 346.770,293.215 348.476,294.203 349.792 C 295.191 351.108,296.000 352.305,296.000 352.452 C 296.000 353.940,308.489 364.735,311.302 365.678 C 312.016 365.917,312.871 366.345,313.201 366.629 C 315.980 369.014,325.734 371.210,333.446 371.187 C 349.952 371.139,361.445 365.135,374.005 350.000 C 375.192 348.570,377.251 346.465,378.581 345.321 C 379.912 344.178,382.170 342.241,383.600 341.017 C 385.153 339.687,387.919 337.947,390.469 336.695 C 394.415 334.759,395.504 334.000,394.339 334.000 C 390.653 334.000,378.137 343.573,371.617 351.380 C 364.215 360.242,353.869 367.451,346.677 368.759 C 345.399 368.991,344.220 369.264,344.056 369.365 C 341.707 370.817,325.912 370.296,320.153 368.576 C 311.496 365.991,301.410 358.697,296.457 351.441 C 295.841 350.538,294.837 349.080,294.225 348.200 C 286.487 337.061,284.490 319.075,289.095 301.993 C 290.545 296.610,296.331 287.578,301.828 282.114 C 320.767 263.290,351.614 264.856,369.400 285.545 C 376.407 293.696,381.289 298.225,387.270 302.123 C 391.032 304.575,394.800 305.915,394.800 304.800 C 394.800 304.580,394.528 304.400,394.195 304.400 C 393.862 304.400,393.277 304.249,392.895 304.064 C 390.782 303.044,387.773 301.432,387.600 301.228 C 387.490 301.098,386.597 300.471,385.615 299.834 C 383.139 298.228,376.713 292.770,375.033 290.847 C 374.575 290.323,374.016 289.693,373.792 289.447 C 373.567 289.201,372.667 288.114,371.792 287.030 C 370.212 285.076,366.257 281.155,362.800 278.117 C 360.242 275.869,353.060 271.624,351.789 271.609 C 351.343 271.604,350.623 271.354,350.189 271.053 C 346.755 268.674,334.458 267.400,326.400 268.590 M390.800 368.079 C 386.206 373.860,377.825 381.636,373.975 383.689 C 373.439 383.976,371.719 385.053,370.154 386.084 C 368.588 387.115,366.829 388.078,366.244 388.225 C 364.346 388.701,363.332 390.800,365.000 390.800 C 365.681 390.800,366.004 390.577,366.012 390.100 C 366.019 389.643,367.156 388.775,369.285 387.600 C 371.079 386.610,373.313 385.215,374.249 384.500 C 375.186 383.785,376.065 383.200,376.203 383.200 C 377.747 383.200,393.200 367.869,393.200 366.337 C 393.200 366.152,393.560 366.000,394.000 366.000 C 394.444 366.000,394.800 365.733,394.800 365.400 C 394.800 363.969,393.232 365.019,390.800 368.079 M393.632 386.933 C 393.595 387.772,394.471 387.643,394.705 386.775 C 394.834 386.300,394.795 386.295,394.479 386.745 C 394.156 387.206,394.063 387.206,393.880 386.745 C 393.734 386.378,393.653 386.440,393.632 386.933 " stroke="none" fill="#e88c94" fill-rule="evenodd"></path><path id="path4" d="M392.411 10.187 C 391.967 10.722,391.985 10.781,392.527 10.573 C 393.187 10.319,393.458 10.958,393.690 13.312 C 393.850 14.928,394.587 14.844,394.672 13.200 C 394.769 11.309,393.207 9.227,392.411 10.187 M377.732 14.549 C 376.375 15.017,374.921 15.715,374.501 16.100 C 374.081 16.485,373.464 16.800,373.130 16.800 C 372.306 16.800,371.362 17.912,370.572 19.815 C 370.210 20.687,369.664 21.670,369.359 22.000 C 368.027 23.440,366.845 25.188,365.435 27.800 C 364.604 29.340,363.581 30.972,363.162 31.426 C 362.743 31.880,362.400 32.638,362.400 33.110 C 362.400 34.198,360.592 35.894,359.078 36.227 C 357.876 36.491,354.800 34.133,354.800 32.948 C 354.800 32.678,354.347 32.102,353.794 31.667 C 353.241 31.232,352.441 30.094,352.016 29.138 C 351.292 27.510,349.732 25.735,349.356 26.111 C 349.264 26.203,350.378 28.058,351.833 30.234 C 353.287 32.410,354.752 34.732,355.087 35.395 C 358.083 41.314,359.139 41.445,361.571 36.200 C 362.081 35.100,362.881 33.730,363.349 33.156 C 363.817 32.581,364.424 31.771,364.697 31.356 C 364.971 30.940,366.164 29.148,367.349 27.373 C 368.535 25.598,369.780 23.618,370.118 22.973 C 370.456 22.328,371.070 21.440,371.483 21.000 C 371.895 20.560,372.818 19.347,373.533 18.303 C 375.071 16.061,375.834 15.802,379.835 16.165 L 382.800 16.433 382.800 15.431 C 382.800 13.508,381.437 13.271,377.732 14.549 M37.400 14.258 C 34.556 14.586,32.054 15.283,31.854 15.803 C 31.736 16.111,30.910 16.736,30.019 17.190 C 29.129 17.644,28.400 18.171,28.400 18.360 C 28.400 18.548,27.815 18.939,27.100 19.227 C 25.343 19.935,22.400 22.356,22.400 23.092 C 22.400 23.681,21.591 24.717,19.543 26.751 C 18.565 27.721,17.831 29.830,17.366 33.000 C 17.191 34.192,17.193 34.193,17.658 33.200 C 21.034 25.979,21.733 24.812,23.915 22.750 C 26.768 20.053,28.709 18.604,30.000 18.209 C 30.550 18.040,31.180 17.768,31.400 17.603 C 34.336 15.411,45.934 14.668,51.341 16.326 C 55.045 17.462,56.641 18.479,60.186 21.957 C 63.510 25.218,63.548 25.210,62.395 21.478 L 61.590 18.872 59.800 18.900 C 58.423 18.920,57.782 18.704,57.028 17.963 C 53.365 14.366,54.036 14.680,49.327 14.352 C 44.949 14.047,39.598 14.005,37.400 14.258 M75.958 14.409 C 75.044 14.626,74.874 14.853,73.865 17.200 C 73.329 18.446,73.192 33.905,73.591 48.000 C 73.750 53.633,73.054 66.023,72.554 66.438 C 71.749 67.106,71.875 68.533,72.835 69.639 C 73.294 70.167,73.789 70.780,73.935 71.000 C 74.081 71.220,74.490 71.580,74.844 71.800 C 75.198 72.020,75.985 72.550,76.592 72.978 C 77.751 73.794,92.983 73.997,103.858 73.341 C 106.526 73.180,108.807 73.274,110.517 73.614 C 114.383 74.382,116.040 73.500,118.136 69.559 C 119.773 66.481,119.876 65.278,118.529 64.981 C 117.908 64.845,117.220 64.681,117.000 64.616 C 116.752 64.544,116.647 65.582,116.724 67.350 C 116.932 72.154,118.951 71.740,95.567 71.688 C 76.895 71.646,75.383 71.592,74.910 70.945 C 74.342 70.168,74.144 18.201,74.706 17.360 C 75.558 16.084,76.819 16.000,95.074 16.006 C 116.543 16.013,115.345 15.802,115.516 19.612 C 115.708 23.895,116.976 23.584,99.139 23.623 L 83.678 23.657 83.445 24.529 C 82.814 26.878,83.187 38.342,83.900 38.557 C 84.285 38.673,90.810 38.820,98.400 38.884 C 114.496 39.019,113.600 38.778,113.600 42.971 C 113.600 45.272,113.489 45.629,112.546 46.371 C 111.192 47.436,111.802 47.440,113.545 46.377 C 114.883 45.562,114.889 45.542,114.727 42.983 C 114.329 36.734,111.091 35.725,99.686 38.293 C 99.127 38.419,98.463 38.219,97.977 37.779 C 97.237 37.109,97.091 37.104,95.843 37.699 C 94.317 38.427,91.490 38.232,90.757 37.348 C 90.095 36.551,88.783 36.676,87.764 37.634 C 85.713 39.561,84.731 37.712,84.636 31.747 C 84.555 26.652,85.655 24.714,88.604 24.753 C 99.487 24.899,113.645 24.695,114.600 24.378 C 116.780 23.656,118.357 18.794,116.906 17.271 C 116.518 16.863,116.005 16.193,115.767 15.782 C 115.529 15.370,114.809 14.901,114.167 14.739 C 112.824 14.401,77.289 14.094,75.958 14.409 M164.500 14.596 C 162.404 15.508,162.930 16.000,166.000 16.000 C 170.822 16.000,170.394 13.296,170.388 43.719 C 170.383 73.241,170.599 71.311,167.246 71.756 C 163.490 72.254,162.148 71.769,160.294 69.244 C 159.388 68.010,157.917 66.026,157.024 64.836 C 155.249 62.470,153.100 59.171,152.311 57.600 C 152.035 57.050,151.312 56.060,150.704 55.400 C 150.095 54.740,149.496 53.885,149.372 53.500 C 149.137 52.773,148.400 52.522,148.400 53.169 C 148.400 53.372,148.817 54.047,149.327 54.669 C 149.837 55.291,150.851 57.060,151.580 58.600 C 152.310 60.140,153.166 61.551,153.483 61.737 C 153.800 61.922,154.419 62.912,154.859 63.937 C 155.298 64.961,155.936 66.109,156.278 66.486 C 156.619 66.863,157.488 68.303,158.208 69.686 C 159.719 72.585,160.845 73.110,165.677 73.168 C 170.513 73.226,174.690 68.747,172.160 66.217 C 171.609 65.667,171.555 64.833,171.777 60.288 C 172.116 53.313,171.361 21.400,170.769 17.706 C 170.190 14.095,168.071 13.044,164.500 14.596 M266.089 14.623 C 264.574 15.684,265.085 16.000,268.311 16.000 C 270.479 16.000,271.691 16.189,272.311 16.623 L 273.200 17.245 273.200 35.292 C 273.200 57.841,272.902 59.924,268.883 65.434 C 263.764 72.451,246.172 74.863,237.750 69.702 C 236.762 69.096,235.510 68.364,234.969 68.075 C 234.428 67.786,233.676 67.066,233.298 66.475 C 232.920 65.884,232.355 65.134,232.042 64.808 C 231.139 63.868,230.091 61.173,229.783 59.000 C 229.627 57.900,229.297 56.747,229.050 56.439 C 228.731 56.041,228.600 50.208,228.600 36.368 C 228.600 18.135,228.556 16.897,227.929 17.464 C 227.043 18.266,226.693 20.568,227.117 22.801 C 227.306 23.791,227.337 30.271,227.187 37.201 C 226.859 52.344,227.521 59.005,229.658 62.062 C 230.066 62.646,230.400 63.376,230.400 63.685 C 230.400 64.500,233.049 68.790,234.450 70.244 C 235.675 71.515,237.854 72.400,239.760 72.400 C 240.348 72.400,241.227 72.652,241.714 72.960 C 243.161 73.876,251.765 74.145,257.400 73.451 C 264.410 72.588,265.582 72.086,267.243 69.235 C 267.989 67.955,268.949 66.748,269.376 66.553 C 270.201 66.177,271.522 64.179,271.571 63.231 C 271.587 62.919,271.899 62.333,272.264 61.930 C 272.742 61.401,273.023 59.963,273.270 56.785 C 273.459 54.359,273.925 51.525,274.306 50.487 C 275.493 47.257,274.971 18.858,273.700 17.506 C 273.205 16.979,272.800 16.273,272.800 15.936 C 272.800 14.123,268.112 13.206,266.089 14.623 M285.900 14.408 C 283.559 15.853,284.675 15.978,300.900 16.091 C 309.535 16.151,316.643 16.187,316.696 16.171 C 316.749 16.155,316.538 15.795,316.227 15.371 C 315.692 14.640,315.020 14.598,303.331 14.560 C 296.549 14.538,290.010 14.398,288.800 14.248 C 287.439 14.080,286.333 14.140,285.900 14.408 M337.518 14.418 C 334.601 14.758,334.000 14.985,334.000 15.747 C 334.000 16.119,334.893 16.210,337.500 16.105 C 341.944 15.925,342.446 16.196,345.079 20.208 C 348.144 24.877,348.567 25.247,348.726 23.396 C 348.932 21.007,346.795 17.842,344.657 17.368 C 343.247 17.055,342.981 16.833,342.871 15.879 C 342.756 14.870,341.440 13.867,340.474 14.053 C 340.323 14.081,338.993 14.246,337.518 14.418 M125.900 14.659 C 125.515 14.769,125.200 15.212,125.200 15.643 C 125.200 16.075,124.951 16.827,124.647 17.314 C 124.080 18.224,123.414 23.107,123.519 25.600 C 123.551 26.370,123.665 36.270,123.773 47.600 C 124.025 74.149,123.999 74.016,128.747 73.986 C 133.609 73.955,138.555 67.796,135.172 65.985 C 134.103 65.413,133.981 49.171,135.031 47.141 C 135.561 46.115,135.586 45.610,135.190 43.960 C 134.198 39.821,134.000 41.780,133.987 55.876 C 133.972 72.780,134.269 71.665,129.767 71.733 C 125.332 71.801,125.676 73.527,125.556 50.600 C 125.401 21.192,125.476 17.381,126.229 16.629 C 127.519 15.338,135.200 16.109,135.200 17.529 C 135.200 17.699,135.471 18.189,135.803 18.619 C 136.446 19.453,139.695 24.252,142.000 27.773 C 142.770 28.950,143.908 30.607,144.528 31.456 C 145.149 32.305,146.599 34.440,147.750 36.200 C 151.105 41.327,155.249 47.317,156.189 48.400 C 156.667 48.950,157.804 50.660,158.715 52.200 C 159.626 53.740,160.738 55.313,161.186 55.696 L 162.000 56.392 161.988 36.696 C 161.979 22.522,161.856 17.206,161.548 17.735 C 161.313 18.140,161.023 20.300,160.903 22.535 C 160.783 24.778,160.461 26.928,160.184 27.330 C 159.772 27.930,159.818 28.447,160.441 30.220 C 161.243 32.504,161.349 34.790,160.818 38.400 C 160.636 39.642,160.668 42.168,160.892 44.200 C 161.391 48.731,160.967 51.344,159.703 51.526 C 159.050 51.620,158.764 51.397,158.575 50.642 C 158.436 50.087,158.069 49.423,157.761 49.167 C 157.452 48.911,157.200 48.389,157.200 48.007 C 157.200 47.625,156.572 46.522,155.804 45.556 C 155.036 44.590,154.406 43.579,154.404 43.309 C 154.402 43.039,153.938 42.516,153.373 42.146 C 152.809 41.776,152.044 40.895,151.673 40.189 C 149.633 36.297,149.035 35.308,148.173 34.400 C 146.288 32.413,144.800 30.485,144.800 30.027 C 144.800 29.039,143.568 27.244,142.704 26.974 C 141.483 26.593,141.213 26.088,141.206 24.173 C 141.201 22.870,140.914 22.231,139.768 20.973 C 138.980 20.108,137.909 18.770,137.388 18.000 C 134.992 14.462,135.271 14.607,130.724 14.529 C 128.456 14.490,126.285 14.549,125.900 14.659 M177.454 14.966 C 176.709 15.590,176.069 18.167,175.850 21.424 C 175.619 24.841,175.833 25.307,177.420 24.853 C 178.069 24.667,181.371 24.605,184.757 24.714 L 190.915 24.912 192.457 26.409 L 194.000 27.906 194.000 46.904 C 194.000 63.303,193.918 65.970,193.400 66.400 C 190.175 69.077,198.873 75.502,202.444 73.081 C 203.190 72.575,204.109 72.043,204.487 71.898 C 206.280 71.212,206.910 67.153,205.380 66.150 L 204.359 65.481 204.581 56.241 C 204.704 51.158,204.902 42.678,205.021 37.396 L 205.239 27.792 206.519 26.282 C 207.952 24.591,207.396 24.683,215.509 24.804 C 219.218 24.860,220.995 24.736,221.409 24.393 C 222.192 23.743,222.166 23.051,221.370 23.356 C 221.023 23.489,217.079 23.607,212.605 23.618 C 205.674 23.635,204.436 23.728,204.236 24.251 C 204.106 24.589,204.000 35.001,204.000 47.388 C 204.000 73.323,204.256 71.593,200.377 71.829 C 194.908 72.162,195.262 73.898,195.284 46.855 C 195.299 28.136,195.208 24.248,194.751 23.944 C 194.448 23.742,190.623 23.620,186.251 23.672 L 178.303 23.767 177.510 22.789 C 176.610 21.677,176.634 17.606,177.546 16.694 C 177.926 16.314,183.072 16.200,199.835 16.200 C 221.401 16.200,221.628 16.192,221.515 15.400 C 221.380 14.461,178.560 14.040,177.454 14.966 M230.500 14.812 C 228.785 15.502,229.615 15.940,232.900 16.078 C 236.478 16.229,237.476 15.897,236.224 14.973 C 235.361 14.336,231.925 14.240,230.500 14.812 M237.096 21.920 C 237.149 24.714,237.248 33.570,237.315 41.600 L 237.438 56.200 238.477 58.203 C 241.893 64.792,251.288 67.002,258.750 62.971 C 260.318 62.124,261.600 61.208,261.600 60.936 C 261.600 60.663,261.874 60.286,262.209 60.099 C 262.614 59.872,263.082 58.223,263.606 55.179 C 264.654 49.093,264.802 25.471,263.781 27.200 C 263.288 28.036,263.207 30.338,263.284 41.200 C 263.374 53.705,263.346 54.261,262.542 55.800 C 262.082 56.680,261.361 58.300,260.940 59.400 C 260.231 61.251,260.056 61.417,258.587 61.632 C 257.714 61.759,256.364 62.139,255.588 62.475 C 253.190 63.512,249.968 63.729,247.966 62.988 C 246.994 62.628,245.750 62.248,245.200 62.143 C 244.650 62.038,243.796 61.869,243.302 61.769 C 242.751 61.657,242.186 61.063,241.839 60.232 C 241.528 59.487,240.902 58.759,240.449 58.616 C 238.628 58.038,237.799 48.672,238.110 32.200 C 238.308 21.761,238.117 17.958,237.360 17.200 C 237.147 16.986,237.039 18.904,237.096 21.920 M263.554 17.420 C 261.738 18.374,261.770 22.388,263.612 24.618 C 264.103 25.212,264.800 19.814,264.604 16.935 C 264.602 16.900,264.129 17.118,263.554 17.420 M320.000 16.993 C 320.000 17.100,320.855 17.624,321.900 18.159 C 333.297 23.990,331.619 41.730,319.319 45.448 C 315.998 46.452,315.993 46.508,318.934 49.322 C 320.400 50.725,321.600 51.999,321.600 52.153 C 321.600 52.308,321.778 52.651,321.995 52.917 C 323.150 54.331,325.458 57.592,326.696 59.562 C 327.471 60.793,328.756 62.790,329.552 64.000 C 331.206 66.513,331.770 67.429,332.448 68.700 C 332.949 69.639,334.163 69.906,334.614 69.177 C 335.209 68.214,334.385 66.881,332.804 66.248 C 331.245 65.624,331.200 65.553,331.200 63.692 C 331.200 61.577,329.807 59.563,327.821 58.808 C 327.201 58.572,326.800 58.109,326.800 57.629 C 326.800 55.810,324.796 52.531,323.348 51.980 C 322.821 51.780,322.178 51.117,321.918 50.508 C 321.658 49.899,321.196 49.100,320.891 48.733 C 320.504 48.269,320.451 47.844,320.716 47.333 C 320.925 46.930,321.047 46.296,320.987 45.924 C 320.901 45.394,321.440 45.119,323.468 44.657 C 326.500 43.965,327.880 42.656,330.065 38.400 C 332.625 33.415,331.136 23.654,327.528 21.769 C 326.939 21.461,326.333 20.802,326.182 20.304 C 325.472 17.969,324.070 16.800,321.980 16.800 C 320.891 16.800,320.000 16.887,320.000 16.993 M332.883 17.474 C 331.654 19.696,332.899 22.407,336.115 24.509 C 336.712 24.899,337.200 25.534,337.200 25.920 C 337.200 26.306,337.443 26.977,337.740 27.411 C 338.037 27.845,338.393 28.662,338.530 29.227 C 338.666 29.791,339.203 30.480,339.721 30.758 C 340.736 31.301,342.000 33.158,342.000 34.105 C 342.000 34.426,342.799 35.368,343.775 36.201 C 344.819 37.090,345.891 38.505,346.377 39.634 C 346.831 40.690,347.377 41.662,347.591 41.794 C 347.804 41.926,348.280 42.668,348.648 43.444 C 349.015 44.219,350.100 45.637,351.058 46.595 L 352.800 48.337 352.800 57.119 C 352.800 64.438,352.700 65.985,352.200 66.400 C 351.870 66.674,351.600 67.394,351.600 68.000 C 351.600 68.606,351.870 69.326,352.200 69.600 C 352.530 69.874,352.801 70.391,352.803 70.749 C 352.814 73.498,361.832 74.169,362.554 71.475 C 362.974 69.910,362.817 69.790,361.794 70.893 C 360.836 71.927,360.645 71.969,357.704 71.809 C 353.372 71.573,353.600 72.267,353.600 59.346 C 353.600 47.207,353.785 48.153,350.514 43.552 C 349.791 42.536,349.200 41.583,349.200 41.435 C 349.200 41.154,349.131 41.065,347.152 38.800 C 346.479 38.030,345.567 36.698,345.125 35.839 C 344.181 34.006,339.448 26.968,338.355 25.774 C 337.940 25.320,337.600 24.827,337.600 24.678 C 337.600 24.530,336.745 23.101,335.700 21.504 C 334.655 19.907,333.703 18.150,333.583 17.600 L 333.367 16.600 332.883 17.474 M283.099 17.777 C 282.300 18.361,282.150 20.890,282.811 22.630 C 283.139 23.491,283.085 23.864,282.548 24.457 C 281.915 25.156,281.919 25.351,282.606 27.620 C 283.970 32.124,284.152 31.503,284.020 22.803 C 283.927 16.656,284.010 17.111,283.099 17.777 M393.811 18.075 C 393.038 20.294,393.422 224.000,394.200 224.000 C 394.732 224.000,394.800 212.292,394.800 121.024 C 394.800 24.484,394.714 15.486,393.811 18.075 M381.915 20.800 C 379.810 23.516,376.000 28.807,376.000 29.014 C 376.000 29.129,375.325 30.104,374.500 31.181 C 373.675 32.257,372.410 34.007,371.688 35.069 C 370.967 36.131,369.941 37.630,369.408 38.400 C 368.875 39.170,367.765 40.790,366.942 42.000 C 366.119 43.210,364.925 44.875,364.289 45.700 L 363.133 47.200 364.091 47.200 C 365.326 47.200,366.862 45.730,368.060 43.400 C 369.809 39.998,370.912 38.132,371.618 37.381 C 372.048 36.923,372.400 36.266,372.400 35.920 C 372.400 35.575,372.850 34.997,373.400 34.637 C 373.950 34.276,374.400 33.715,374.400 33.388 C 374.400 33.062,374.838 32.414,375.373 31.949 C 375.941 31.455,376.456 30.452,376.610 29.543 C 376.806 28.382,377.160 27.835,377.993 27.403 C 378.609 27.085,379.297 26.296,379.523 25.650 C 379.748 25.004,380.262 24.369,380.666 24.238 C 381.723 23.897,383.286 21.419,383.132 20.329 C 383.006 19.441,382.952 19.462,381.915 20.800 M37.600 23.276 C 32.686 24.342,34.321 24.900,41.516 24.612 L 48.432 24.334 49.720 25.740 C 50.428 26.514,51.492 27.331,52.083 27.555 C 52.865 27.853,53.227 28.338,53.415 29.339 C 53.765 31.205,56.448 33.929,58.688 34.692 C 59.664 35.024,60.557 35.545,60.674 35.848 C 60.832 36.262,61.275 36.091,62.443 35.166 C 64.521 33.520,64.546 32.582,62.500 33.005 C 61.675 33.176,60.200 33.335,59.223 33.358 L 57.446 33.400 55.822 30.259 C 52.512 23.859,46.151 21.421,37.600 23.276 M293.500 23.484 C 292.939 23.624,292.800 24.097,292.800 25.872 C 292.800 27.726,292.903 28.046,293.433 27.843 C 293.781 27.709,294.138 27.600,294.227 27.600 C 294.316 27.600,294.643 26.993,294.953 26.251 C 295.680 24.511,297.076 24.337,307.200 24.720 C 314.265 24.987,314.617 25.039,314.979 25.864 C 315.188 26.339,315.935 27.002,316.640 27.338 C 317.507 27.752,318.073 28.410,318.392 29.375 C 318.650 30.159,319.073 30.805,319.331 30.812 C 319.589 30.819,319.499 31.000,319.131 31.215 C 318.763 31.429,318.350 32.116,318.213 32.741 C 317.767 34.771,313.996 38.294,311.958 38.585 C 309.442 38.944,297.787 38.953,295.300 38.598 C 293.312 38.314,293.200 38.345,293.200 39.179 L 293.200 40.060 303.500 39.930 C 312.936 39.811,313.951 39.730,315.600 38.967 C 322.060 35.976,322.153 27.613,315.763 24.418 C 313.891 23.482,296.443 22.750,293.500 23.484 M32.036 26.436 C 31.307 26.880,30.795 27.328,30.899 27.433 C 31.177 27.710,33.075 26.925,33.401 26.398 C 33.897 25.596,33.394 25.611,32.036 26.436 M64.426 28.051 C 64.852 28.886,65.203 29.980,65.207 30.484 C 65.213 31.321,65.284 31.290,66.037 30.115 C 67.254 28.215,66.941 27.066,65.126 26.773 L 63.652 26.534 64.426 28.051 M28.842 29.655 C 26.095 33.129,24.794 47.262,26.731 52.586 C 27.209 53.899,27.600 55.249,27.600 55.587 C 27.600 55.926,28.223 57.079,28.984 58.149 C 36.707 69.012,53.711 66.768,57.386 54.400 C 57.550 53.850,57.939 52.995,58.251 52.500 C 58.793 51.640,58.765 51.600,57.609 51.600 C 55.357 51.600,54.532 53.208,54.680 57.312 C 54.713 58.220,54.434 58.571,53.160 59.220 C 52.302 59.658,51.600 60.183,51.600 60.388 C 51.600 62.143,43.168 64.143,40.290 63.072 C 39.360 62.726,37.430 62.244,36.000 62.000 C 32.346 61.379,32.233 61.330,31.684 60.101 C 30.980 58.527,30.227 57.302,29.337 56.285 C 27.731 54.448,27.485 53.439,27.781 49.892 C 28.020 47.020,27.962 46.419,27.390 45.847 C 26.881 45.338,26.704 44.376,26.659 41.887 C 26.599 38.554,26.811 37.845,29.015 34.000 C 29.330 33.450,29.591 32.696,29.594 32.324 C 29.597 31.952,29.780 31.536,30.000 31.400 C 30.460 31.115,30.552 28.389,30.100 28.422 C 29.935 28.434,29.369 28.989,28.842 29.655 M134.097 31.950 C 133.609 33.269,133.960 35.590,134.610 35.341 C 134.901 35.229,135.332 35.500,135.569 35.942 C 135.806 36.384,136.327 36.850,136.728 36.977 C 137.179 37.120,137.718 38.037,138.142 39.383 C 138.731 41.252,139.023 41.629,140.214 42.059 C 141.115 42.385,141.600 42.820,141.600 43.300 C 141.600 44.474,142.687 46.265,143.941 47.158 C 144.759 47.740,145.169 48.445,145.351 49.581 C 145.580 51.014,146.965 52.400,148.168 52.400 C 148.623 52.400,146.888 49.227,145.980 48.400 C 145.738 48.180,142.031 42.713,141.410 41.661 C 139.978 39.235,138.854 37.605,137.712 36.299 C 136.990 35.473,136.400 34.609,136.400 34.378 C 136.400 33.120,134.432 31.045,134.097 31.950 M292.828 33.300 C 292.844 34.455,293.027 35.760,293.236 36.200 C 293.595 36.955,293.607 36.950,293.450 36.118 C 293.337 35.513,293.585 35.040,294.242 34.609 C 295.442 33.823,295.471 32.635,294.311 31.823 C 292.956 30.873,292.798 31.030,292.828 33.300 M282.660 33.533 C 282.174 35.019,282.121 35.806,282.433 36.936 C 282.657 37.744,282.811 39.799,282.777 41.503 C 282.743 43.206,282.721 44.960,282.728 45.400 C 282.735 45.840,282.663 48.450,282.569 51.200 C 282.301 58.959,282.299 59.114,282.426 64.104 C 282.526 68.045,282.663 68.914,283.273 69.466 C 283.673 69.828,284.000 70.331,284.000 70.584 C 284.000 73.232,289.897 74.965,291.944 72.917 C 293.274 71.587,294.119 67.559,293.250 66.690 C 292.917 66.357,292.800 66.760,292.800 68.244 C 292.800 71.066,292.346 71.464,288.800 71.753 C 283.644 72.172,283.904 73.255,284.017 51.855 C 284.136 29.143,284.129 29.042,282.660 33.533 M16.438 34.954 C 15.863 35.648,15.587 40.013,15.969 42.400 L 16.257 44.200 16.540 41.400 C 16.696 39.860,16.921 37.655,17.041 36.500 C 17.270 34.284,17.182 34.058,16.438 34.954 M15.631 46.499 C 14.381 48.500,15.655 56.176,17.573 58.199 C 18.199 58.859,18.843 59.850,19.002 60.400 C 19.162 60.950,20.172 62.179,21.247 63.131 C 22.321 64.083,23.200 65.116,23.200 65.427 C 23.200 67.277,26.687 71.420,28.639 71.889 C 38.157 74.181,49.450 74.500,53.012 72.579 C 56.461 70.718,56.012 69.791,52.300 71.108 C 47.986 72.638,37.133 72.702,33.200 71.221 C 24.210 67.834,17.913 59.409,16.975 49.511 C 16.634 45.915,16.368 45.319,15.631 46.499 M83.696 47.344 C 83.206 48.098,83.208 62.089,83.698 63.100 C 83.939 63.595,84.465 64.000,84.868 64.000 C 85.874 64.000,85.792 63.343,84.750 63.071 C 84.038 62.885,83.949 62.668,84.202 61.725 C 84.643 60.077,84.789 52.824,84.402 51.806 C 84.177 51.214,84.304 50.408,84.795 49.312 L 85.520 47.692 89.860 47.808 C 92.559 47.880,94.717 48.147,95.566 48.513 C 96.780 49.038,97.093 49.034,98.366 48.482 C 99.296 48.078,100.854 47.879,102.800 47.916 C 107.102 47.996,111.224 47.589,110.162 47.188 C 108.775 46.664,84.043 46.810,83.696 47.344 M294.705 47.883 C 295.202 47.979,295.922 47.975,296.305 47.875 C 296.687 47.775,296.280 47.696,295.400 47.701 C 294.520 47.705,294.207 47.787,294.705 47.883 M301.505 47.883 C 302.002 47.979,302.722 47.975,303.105 47.875 C 303.487 47.775,303.080 47.696,302.200 47.701 C 301.320 47.705,301.007 47.787,301.505 47.883 M304.500 48.300 C 304.555 48.465,304.510 48.615,304.400 48.632 C 302.315 48.970,302.172 50.418,304.250 50.160 C 305.399 50.017,305.894 50.185,306.700 50.991 C 307.255 51.546,307.859 52.000,308.042 52.000 C 308.919 52.000,315.589 59.449,315.613 60.456 C 315.620 60.755,315.890 61.349,316.213 61.776 C 316.536 62.204,316.800 62.986,316.800 63.515 C 316.800 64.953,318.277 66.800,319.427 66.800 C 320.782 66.800,320.656 66.277,318.676 63.670 C 317.728 62.421,316.603 60.826,316.176 60.125 C 313.688 56.036,310.872 52.160,309.200 50.524 C 307.636 48.994,304.187 47.362,304.500 48.300 M362.942 53.000 C 362.941 54.980,363.008 55.840,363.092 54.912 C 363.176 53.984,363.177 52.364,363.095 51.312 C 363.012 50.260,362.943 51.020,362.942 53.000 M60.056 50.813 C 59.402 51.357,59.296 51.600,59.710 51.600 C 60.472 51.600,64.367 52.751,65.334 53.262 C 65.923 53.572,66.042 53.514,65.934 52.968 C 65.860 52.593,65.440 52.094,65.000 51.859 C 64.560 51.624,63.712 51.110,63.116 50.716 C 61.752 49.815,61.235 49.831,60.056 50.813 M65.613 57.121 C 63.993 61.625,61.375 65.117,56.925 68.708 L 55.800 69.617 57.400 69.373 C 60.015 68.976,60.308 68.822,60.591 67.694 C 60.740 67.101,61.634 65.893,62.578 65.008 C 65.232 62.523,66.780 59.628,66.794 57.124 C 66.803 55.475,66.206 55.474,65.613 57.121 M362.951 61.600 C 362.951 64.130,363.016 65.165,363.096 63.900 C 363.175 62.635,363.175 60.565,363.096 59.300 C 363.016 58.035,362.951 59.070,362.951 61.600 M92.100 63.114 C 89.811 63.178,88.000 63.399,88.000 63.614 C 88.000 63.854,92.942 63.995,101.100 63.988 C 111.506 63.978,114.035 63.876,113.400 63.493 C 112.616 63.020,102.167 62.834,92.100 63.114 M321.600 70.295 C 321.600 71.756,321.847 71.956,324.800 72.892 C 328.289 73.996,331.244 73.812,331.976 72.445 C 332.296 71.847,331.958 71.795,328.493 71.902 L 324.656 72.022 323.128 70.530 L 321.600 69.038 321.600 70.295 M330.200 240.990 C 329.980 241.088,328.208 241.336,326.262 241.541 C 323.280 241.857,321.345 242.474,322.027 242.893 C 322.672 243.290,343.137 242.542,342.882 242.131 C 342.722 241.873,341.783 241.570,340.796 241.458 C 337.810 241.118,330.627 240.801,330.200 240.990 M344.500 243.076 C 344.885 243.176,345.515 243.176,345.900 243.076 C 346.285 242.975,345.970 242.893,345.200 242.893 C 344.430 242.893,344.115 242.975,344.500 243.076 M310.700 244.565 C 309.655 244.846,308.466 245.378,308.059 245.747 C 307.651 246.115,306.093 246.673,304.596 246.987 C 303.099 247.300,301.765 247.733,301.632 247.948 C 301.499 248.164,300.523 248.559,299.464 248.826 C 298.073 249.176,297.441 249.567,297.187 250.234 C 296.994 250.742,296.378 251.458,295.818 251.825 C 295.258 252.192,294.800 252.646,294.800 252.833 C 294.800 253.266,296.031 252.812,296.729 252.122 C 297.019 251.835,297.568 251.600,297.949 251.600 C 298.329 251.600,298.811 251.434,299.020 251.230 C 300.045 250.232,311.896 245.600,313.424 245.600 C 313.662 245.600,314.564 245.247,315.429 244.816 L 317.000 244.032 314.800 244.043 C 313.590 244.049,311.745 244.284,310.700 244.565 M353.000 244.786 C 354.100 245.196,356.440 245.974,358.200 246.516 C 359.960 247.058,362.570 248.042,364.000 248.704 C 371.479 252.163,371.517 252.183,374.200 254.206 C 375.080 254.870,376.970 256.208,378.400 257.181 C 379.830 258.154,383.029 261.012,385.509 263.532 C 387.990 266.052,390.099 268.035,390.196 267.938 C 390.560 267.573,388.363 263.845,387.008 262.529 C 386.234 261.777,385.600 260.932,385.600 260.650 C 385.600 259.548,383.613 258.219,382.151 258.345 C 381.015 258.443,380.701 258.309,380.530 257.653 C 380.413 257.206,379.369 256.187,378.209 255.389 C 377.050 254.590,375.857 253.481,375.559 252.924 C 374.913 251.716,373.715 251.200,371.561 251.200 C 370.509 251.200,369.896 250.995,369.741 250.591 C 369.389 249.674,365.455 247.200,364.350 247.200 C 363.818 247.200,362.756 246.690,361.991 246.067 C 360.588 244.923,356.092 243.964,352.400 244.020 C 351.003 244.042,351.005 244.043,353.000 244.786 M393.449 250.617 C 393.086 251.562,393.676 254.267,394.244 254.267 C 394.647 254.267,394.800 253.698,394.800 252.200 C 394.800 250.213,393.975 249.246,393.449 250.617 M289.515 255.618 C 288.258 256.267,287.050 257.133,286.831 257.543 C 286.611 257.953,285.546 258.669,284.462 259.135 C 282.525 259.968,282.000 260.573,282.000 261.971 C 282.000 262.884,280.898 263.863,279.470 264.220 C 278.708 264.410,277.881 265.193,276.929 266.628 C 276.080 267.907,275.176 268.804,274.662 268.878 C 273.743 269.009,273.090 270.110,272.225 272.985 C 271.524 275.314,271.446 275.364,274.516 271.500 C 277.639 267.570,285.009 260.287,287.762 258.413 C 288.840 257.678,290.010 256.825,290.362 256.518 C 290.713 256.210,291.450 255.614,292.000 255.193 C 293.530 254.021,292.152 254.257,289.515 255.618 M391.200 268.995 C 391.200 269.967,393.343 272.768,394.100 272.785 C 395.570 272.817,395.055 268.951,393.550 268.650 C 391.667 268.273,391.200 268.342,391.200 268.995 M327.000 270.045 C 321.273 270.875,314.683 273.055,311.600 275.140 C 310.390 275.959,308.884 276.889,308.252 277.207 C 307.621 277.526,306.438 278.419,305.623 279.193 C 303.819 280.906,301.923 282.400,301.552 282.400 C 301.402 282.400,301.090 282.940,300.860 283.600 C 300.492 284.657,300.532 284.800,301.195 284.800 C 301.693 284.800,302.120 284.325,302.454 283.400 C 302.827 282.369,303.196 282.000,303.854 282.000 C 305.403 282.000,306.529 281.346,309.000 279.011 C 311.150 276.979,311.868 276.584,315.891 275.215 C 318.362 274.374,320.940 273.216,321.622 272.643 L 322.861 271.600 331.931 271.608 C 342.473 271.617,345.794 271.988,347.914 273.391 C 348.739 273.936,350.040 274.502,350.807 274.649 C 352.245 274.924,354.613 276.140,357.400 278.034 C 358.280 278.632,359.675 279.237,360.500 279.379 C 361.725 279.589,362.000 279.805,362.000 280.558 C 362.000 281.150,362.752 282.196,364.100 283.479 C 365.255 284.579,366.959 286.271,367.887 287.239 C 369.852 289.290,370.302 289.749,374.700 294.185 C 376.515 296.016,378.000 297.812,378.000 298.177 C 378.000 298.565,378.618 299.099,379.485 299.461 C 380.302 299.803,381.787 300.805,382.785 301.688 C 383.783 302.571,385.548 303.745,386.708 304.297 C 387.867 304.849,388.907 305.450,389.020 305.633 C 389.133 305.816,389.462 305.874,389.751 305.764 C 390.428 305.504,392.320 307.986,393.189 310.274 C 394.146 312.797,394.583 312.450,394.716 309.060 L 394.832 306.114 392.516 305.459 C 391.242 305.099,389.660 304.360,389.000 303.817 C 388.340 303.273,387.636 302.822,387.436 302.814 C 387.048 302.799,382.870 299.792,382.200 299.045 C 381.980 298.800,381.039 298.083,380.108 297.451 C 378.389 296.284,372.407 290.076,369.846 286.800 C 367.730 284.095,359.499 276.811,358.549 276.804 C 358.301 276.802,357.862 276.515,357.573 276.167 C 354.086 271.966,337.152 268.575,327.000 270.045 M269.118 276.459 C 268.523 276.676,267.934 277.178,267.808 277.574 C 267.682 277.970,267.224 278.616,266.790 279.009 C 266.248 279.500,266.000 280.239,266.000 281.366 C 266.000 282.538,265.785 283.142,265.249 283.476 C 264.837 283.734,264.398 284.452,264.274 285.073 C 263.732 287.787,263.438 288.655,262.775 289.510 C 262.387 290.011,261.844 291.678,261.570 293.215 C 261.295 294.752,260.829 296.210,260.535 296.454 C 260.241 296.698,260.000 297.236,260.000 297.649 C 260.000 298.062,259.820 298.423,259.600 298.450 C 259.380 298.478,258.975 298.522,258.700 298.550 C 257.795 298.641,257.235 301.262,257.450 304.400 C 257.563 306.050,257.500 310.460,257.310 314.200 C 256.667 326.875,258.506 342.474,260.812 343.914 C 261.858 344.568,261.866 343.803,260.839 341.274 C 256.983 331.778,257.127 308.045,261.108 297.000 C 261.663 295.460,262.507 293.120,262.985 291.800 C 264.076 288.785,267.801 281.120,269.205 279.000 C 270.391 277.211,270.921 275.984,270.487 276.032 C 270.329 276.049,269.713 276.241,269.118 276.459 M297.860 287.040 C 296.725 288.598,293.600 293.290,293.600 293.435 C 293.600 293.507,293.102 294.428,292.494 295.482 C 286.680 305.561,285.454 321.465,289.332 336.489 C 291.332 344.238,301.319 358.181,307.247 361.501 L 308.695 362.311 308.324 360.658 C 308.119 359.749,307.682 358.854,307.352 358.669 C 307.022 358.484,306.154 357.808,305.423 357.167 C 304.692 356.525,303.909 356.000,303.682 356.000 C 303.085 356.000,299.178 351.227,298.548 349.729 C 298.254 349.030,297.687 348.355,297.287 348.228 C 296.365 347.935,292.400 341.901,292.400 340.790 C 292.400 340.330,291.701 337.850,290.846 335.277 C 289.940 332.549,289.179 329.350,289.019 327.600 C 288.868 325.950,288.571 324.038,288.358 323.350 C 287.627 320.990,289.400 305.633,290.684 303.200 C 291.090 302.430,291.913 301.083,292.511 300.207 C 293.110 299.331,293.600 298.267,293.600 297.842 C 293.600 295.594,295.009 292.719,297.061 290.778 C 298.530 289.388,299.245 288.365,299.428 287.393 C 299.748 285.686,298.974 285.511,297.860 287.040 M393.600 319.661 C 393.600 320.721,393.386 322.389,393.124 323.368 C 392.589 325.367,393.100 327.200,394.191 327.200 C 394.702 327.200,394.800 326.437,394.800 322.467 C 394.800 318.526,394.700 317.733,394.200 317.733 C 393.750 317.733,393.600 318.214,393.600 319.661 M392.663 332.000 C 391.921 332.833,391.224 333.200,390.384 333.200 C 388.405 333.200,386.519 334.228,385.481 335.871 C 384.724 337.071,384.115 337.510,382.678 337.895 C 380.797 338.398,376.297 342.433,375.772 344.088 C 375.645 344.487,374.835 345.174,373.971 345.615 C 373.107 346.056,372.400 346.683,372.400 347.008 C 372.400 347.334,372.240 347.600,372.044 347.600 C 371.848 347.600,371.322 348.378,370.875 349.329 C 370.360 350.426,369.096 351.851,367.418 353.229 C 365.964 354.423,363.778 356.360,362.562 357.533 C 361.126 358.919,360.134 359.584,359.733 359.430 C 359.343 359.280,358.651 359.695,357.857 360.555 C 357.166 361.304,355.962 362.181,355.182 362.504 C 354.402 362.827,353.464 363.548,353.098 364.107 C 352.427 365.131,351.756 365.310,345.413 366.164 C 344.540 366.282,343.298 366.769,342.651 367.247 C 340.988 368.476,323.706 368.211,321.510 366.922 C 320.790 366.499,319.300 365.916,318.200 365.627 C 317.100 365.337,315.840 364.693,315.400 364.194 C 314.400 363.062,308.731 361.718,309.380 362.767 C 310.439 364.481,318.773 367.940,324.344 368.977 C 333.339 370.652,349.827 368.836,353.200 365.798 C 353.530 365.500,354.690 364.876,355.778 364.409 C 358.524 363.233,366.965 356.327,369.000 353.593 C 371.850 349.764,378.297 343.243,381.636 340.812 C 382.826 339.946,384.520 338.706,385.400 338.057 C 386.280 337.408,388.080 336.364,389.400 335.738 C 390.720 335.112,392.038 334.375,392.329 334.100 C 392.619 333.825,393.294 333.600,393.829 333.600 C 394.672 333.600,394.800 333.416,394.800 332.200 C 394.800 330.449,394.103 330.384,392.663 332.000 M261.790 347.393 C 261.917 349.199,262.245 350.542,262.715 351.193 C 263.546 352.341,265.200 355.796,265.200 356.382 C 265.200 356.596,265.712 357.363,266.339 358.086 C 266.965 358.809,267.595 360.008,267.739 360.752 C 267.883 361.496,268.611 362.780,269.358 363.606 C 270.104 364.432,270.945 365.744,271.226 366.521 C 271.507 367.298,272.136 368.116,272.624 368.338 C 273.112 368.560,274.537 370.285,275.792 372.171 C 277.270 374.391,278.331 375.600,278.804 375.600 C 280.145 375.600,280.825 376.086,281.396 377.451 C 281.743 378.283,282.393 378.965,283.081 379.220 C 283.696 379.447,284.945 380.436,285.857 381.417 C 287.096 382.751,287.811 383.200,288.695 383.200 C 289.961 383.200,290.721 383.889,291.564 385.800 C 292.549 388.036,292.673 388.199,293.779 388.742 C 294.387 389.040,295.225 389.625,295.642 390.042 C 296.713 391.113,300.902 391.163,300.529 390.100 C 300.228 389.240,298.994 388.171,297.400 387.389 C 294.779 386.103,292.576 384.745,292.115 384.133 C 291.849 383.779,291.286 383.289,290.866 383.045 C 287.734 381.225,285.052 379.006,280.288 374.295 C 277.270 371.309,274.800 368.671,274.800 368.433 C 274.800 368.195,274.485 367.673,274.100 367.272 C 273.164 366.300,271.600 364.101,271.600 363.757 C 271.600 363.606,270.944 362.682,270.142 361.703 C 268.710 359.956,263.210 349.379,263.190 348.334 C 263.184 348.040,262.822 347.080,262.386 346.200 L 261.592 344.600 261.790 347.393 M392.652 367.900 C 392.125 368.725,391.212 369.940,390.624 370.600 C 390.035 371.260,389.180 372.312,388.724 372.937 L 387.893 374.073 388.847 373.537 C 389.371 373.242,389.944 372.775,390.120 372.500 C 390.296 372.225,390.765 372.000,391.161 372.000 C 391.558 372.000,392.372 371.547,392.969 370.993 C 393.567 370.440,394.223 370.091,394.428 370.217 C 394.639 370.348,394.800 369.571,394.800 368.424 C 394.800 365.913,394.040 365.727,392.652 367.900 M386.000 375.638 C 385.450 376.085,383.804 377.564,382.343 378.925 C 380.882 380.286,379.165 381.788,378.527 382.261 C 376.151 384.026,370.910 387.433,369.086 388.399 C 366.998 389.506,366.503 390.800,368.167 390.800 C 369.554 390.800,370.400 390.401,370.400 389.749 C 370.400 389.437,370.895 388.973,371.500 388.716 C 374.270 387.539,377.168 385.468,377.540 384.399 C 377.852 383.504,378.252 383.228,379.553 383.008 C 380.805 382.796,381.361 382.434,381.987 381.420 C 382.434 380.698,383.474 379.653,384.300 379.097 C 385.416 378.346,387.789 374.677,387.070 374.813 C 387.032 374.821,386.550 375.192,386.000 375.638 M393.901 375.700 C 393.136 376.287,393.367 378.225,394.241 378.561 C 394.668 378.724,394.800 378.353,394.800 376.987 C 394.800 374.993,394.808 375.004,393.901 375.700 M388.463 381.561 C 388.046 381.818,388.081 381.945,388.624 382.154 C 389.448 382.470,389.900 382.140,389.370 381.610 C 389.163 381.403,388.755 381.381,388.463 381.561 M4.300 383.101 C 3.202 383.348,3.290 387.194,4.400 387.484 C 4.840 387.599,5.200 387.863,5.200 388.070 C 5.200 388.278,5.356 388.351,5.547 388.233 C 5.737 388.115,6.211 388.370,6.600 388.800 C 6.989 389.230,7.491 389.468,7.715 389.329 C 7.940 389.190,8.008 389.264,7.866 389.493 C 7.465 390.141,8.476 390.715,9.800 390.592 C 10.460 390.530,11.945 390.461,13.100 390.440 C 16.806 390.370,15.260 388.536,11.425 388.452 C 7.690 388.371,6.000 387.084,6.000 384.321 C 6.000 383.498,5.172 382.904,4.300 383.101 M391.590 383.826 C 391.376 384.390,391.200 384.956,391.200 385.082 C 391.200 386.145,387.320 387.705,385.327 387.443 C 383.118 387.152,381.260 387.822,380.960 389.017 C 380.552 390.642,381.003 390.801,385.924 390.775 C 389.131 390.757,390.317 390.636,389.700 390.388 C 388.584 389.939,388.526 389.217,389.600 389.150 C 390.040 389.123,390.805 389.073,391.300 389.041 C 391.915 389.001,392.163 388.763,392.082 388.291 C 392.015 387.896,392.217 387.600,392.555 387.600 C 392.879 387.600,393.202 387.195,393.272 386.700 C 393.358 386.099,393.633 385.839,394.100 385.918 C 394.671 386.013,394.800 385.736,394.800 384.418 C 394.800 382.351,392.324 381.895,391.590 383.826 " stroke="none" fill="#cf4949" fill-rule="evenodd"></path></g></svg>